<?xml version="1.0" standalone="no"?>
<!DOCTYPE svg PUBLIC "-//W3C//DTD SVG 20010904//EN"
 "http://www.w3.org/TR/2001/REC-SVG-20010904/DTD/svg10.dtd">
<svg version="1.0" xmlns="http://www.w3.org/2000/svg"
 width="1007.000000pt" height="1280.000000pt" viewBox="0 0 1007.000000 1280.000000"
 preserveAspectRatio="xMidYMid meet">
<metadata>
Created by potrace 1.15, written by Peter Selinger 2001-2017
</metadata>
<g transform="translate(0.000000,1280.000000) scale(0.100000,-0.100000)"
fill="#ffffff" stroke="none">
<path d="M2983 12705 c-30 -112 -36 -187 -22 -296 37 -310 222 -609 534 -863
121 -99 187 -147 420 -306 261 -178 356 -251 483 -375 176 -169 277 -335 317
-519 20 -89 16 -253 -7 -340 l-14 -48 -164 -85 c-565 -291 -843 -609 -947
-1085 -25 -116 -25 -452 0 -588 48 -258 153 -568 286 -840 23 -46 41 -85 41
-88 0 -6 -1093 6 -1210 13 -41 3 -178 7 -305 10 -379 9 -987 37 -1575 71 -81
5 -120 3 -170 -10 -161 -42 -281 -164 -325 -331 -13 -52 -15 -250 -15 -1620 0
-983 4 -1604 10 -1680 51 -587 264 -1116 629 -1562 104 -128 322 -342 441
-435 333 -259 714 -440 1122 -533 271 -62 237 -60 1373 -60 1140 0 1100 -2
1385 62 985 220 1800 989 2081 1965 26 89 62 256 83 380 l7 37 48 -29 c134
-83 333 -160 511 -198 481 -104 994 10 1385 306 167 127 280 247 396 421 292
435 366 976 203 1481 -45 138 -147 341 -231 460 -87 122 -281 316 -403 402
-530 376 -1227 421 -1797 117 l-93 -50 0 248 c0 262 -6 307 -50 393 -34 66
-124 156 -192 189 -109 55 -126 56 -549 32 -211 -11 -434 -24 -496 -27 l-112
-6 -68 37 c-446 247 -837 701 -977 1134 -111 342 -124 685 -41 1051 36 163 22
146 196 219 392 164 647 319 847 519 242 240 367 501 379 794 7 155 -7 259
-53 398 -159 481 -601 834 -1259 1005 -175 46 -482 106 -530 105 -5 -1 69 -34
165 -74 468 -196 675 -307 881 -474 226 -182 387 -426 444 -672 22 -98 23
-263 1 -355 -59 -247 -288 -511 -601 -692 -84 -49 -311 -163 -323 -163 -5 0
-12 55 -15 123 -7 153 -29 234 -107 392 -75 151 -157 260 -301 400 -207 200
-289 257 -689 478 -379 209 -503 291 -649 432 -121 116 -202 225 -261 350 -63
132 -82 206 -89 345 l-6 115 -22 -80z m1595 -3257 c-15 -89 -12 -392 6 -512
112 -767 636 -1384 1350 -1591 l81 -23 -45 -5 c-102 -13 -1417 -47 -1817 -47
l-222 0 -10 38 c-14 52 -77 360 -96 462 -62 345 -60 683 6 920 26 95 94 239
156 332 65 97 208 239 321 318 94 66 248 157 268 159 8 1 8 -14 2 -51z m4075
-3291 c429 -114 758 -463 847 -896 26 -127 28 -329 5 -449 -43 -223 -151 -433
-307 -593 -316 -327 -783 -442 -1210 -299 -172 58 -306 140 -440 269 l-88 84
0 754 0 755 79 77 c158 157 357 264 581 312 131 29 399 21 533 -14z"/>
<path d="M1720 12236 c0 -2 30 -18 66 -36 158 -78 277 -267 291 -465 14 -203
-69 -434 -263 -735 -48 -74 -125 -193 -171 -265 -92 -142 -200 -354 -232 -453
-49 -153 -65 -260 -66 -427 0 -238 37 -400 137 -599 87 -174 144 -249 399
-520 70 -74 147 -163 173 -198 234 -329 227 -760 -18 -1101 -48 -66 -51 -75
-28 -63 80 44 189 146 258 243 158 220 218 547 149 812 -47 182 -115 296 -391
658 -132 173 -187 262 -228 366 -62 156 -90 387 -67 548 26 175 85 315 349
819 160 307 215 491 215 720 -1 162 -20 248 -85 373 -53 102 -164 218 -255
265 -69 36 -233 77 -233 58z"/>
<path d="M62 920 c-55 -34 -77 -112 -48 -168 23 -44 525 -535 595 -582 84 -56
211 -115 308 -142 l78 -23 2840 -3 c2052 -2 2862 0 2920 8 152 21 313 87 433
178 57 42 537 512 564 552 11 15 18 44 18 73 0 40 -5 53 -34 85 l-34 37 -3804
2 c-3800 3 -3803 3 -3836 -17z"/>
</g>
</svg>
