<?xml version="1.0" standalone="no"?>
<!DOCTYPE svg PUBLIC "-//W3C//DTD SVG 20010904//EN"
 "http://www.w3.org/TR/2001/REC-SVG-20010904/DTD/svg10.dtd">
<svg version="1.0" xmlns="http://www.w3.org/2000/svg"
 width="982.000000pt" height="1280.000000pt" viewBox="0 0 982.000000 1280.000000"
 preserveAspectRatio="xMidYMid meet">
<metadata>
Created by potrace 1.15, written by Peter Selinger 2001-2017
</metadata>
<g transform="translate(0.000000,1280.000000) scale(0.100000,-0.100000)"
fill="#ffffff" stroke="none">
<path d="M4750 12777 c-83 -28 -143 -64 -224 -132 -144 -122 -266 -317 -305
-485 -11 -47 -33 -191 -50 -321 -32 -245 -56 -347 -93 -394 l-21 -28 22 12
c21 12 22 11 12 -7 -6 -11 -26 -33 -46 -51 -37 -32 -37 -35 5 -31 35 3 76 26
94 52 l16 22 0 -23 c0 -12 -14 -43 -32 -67 -27 -37 -30 -47 -18 -54 13 -8 12
-16 -4 -57 -29 -77 -39 -121 -32 -148 8 -33 24 -32 28 3 2 16 9 27 18 27 18 0
17 -27 -1 -73 -13 -31 -12 -37 14 -83 15 -28 25 -54 22 -58 -2 -5 -19 -11 -37
-13 -23 -4 -56 6 -122 38 -290 137 -907 321 -1323 394 -74 13 -198 25 -333 30
-282 12 -415 30 -800 107 -185 37 -372 89 -455 127 -126 57 -367 247 -547 429
-123 125 -148 138 -148 77 0 -76 146 -396 259 -568 32 -48 81 -116 111 -151
l53 -63 -49 28 c-213 122 -363 255 -422 375 -31 62 -41 74 -62 74 -24 0 -25
-2 -24 -70 1 -52 11 -99 38 -180 91 -272 262 -496 519 -680 69 -50 123 -92
121 -94 -7 -7 -187 71 -403 175 -118 57 -220 104 -228 104 -22 0 -26 -26 -9
-58 26 -50 134 -181 226 -272 159 -160 305 -263 440 -312 l75 -27 -140 0
c-161 -1 -304 12 -390 35 -105 28 -105 28 -105 6 0 -45 211 -208 384 -296 178
-91 288 -115 536 -117 205 -1 227 -8 130 -37 -310 -95 -422 -127 -540 -158
-165 -42 -180 -48 -180 -74 0 -68 364 -144 691 -145 l186 0 -41 -24 c-110 -63
-295 -139 -391 -160 -55 -12 -81 -22 -83 -33 -5 -24 43 -36 191 -49 233 -21
530 -1 689 46 33 10 -108 -92 -227 -164 -55 -33 -122 -68 -150 -77 -107 -36
-114 -42 -73 -66 17 -9 75 -13 208 -12 267 1 461 34 593 101 27 13 51 22 53
20 6 -6 -117 -113 -194 -170 -60 -44 -123 -78 -204 -111 -27 -11 -36 -19 -32
-30 9 -22 75 -21 215 5 274 49 485 120 585 195 105 81 47 -64 -70 -173 -37
-35 -99 -79 -144 -103 -137 -71 -160 -113 -64 -118 94 -5 263 54 420 148 75
45 64 23 -20 -40 -85 -65 -148 -123 -148 -138 0 -20 31 -42 58 -42 42 0 120
24 216 65 48 20 89 35 92 32 10 -9 -82 -79 -138 -105 -32 -14 -60 -34 -64 -44
-25 -81 171 -131 321 -80 l60 20 -55 -50 c-30 -28 -78 -66 -107 -86 -56 -37
-59 -42 -43 -72 24 -44 166 -54 289 -20 40 12 75 19 77 18 1 -2 -24 -25 -56
-51 -33 -26 -62 -58 -66 -72 -13 -52 47 -101 136 -112 49 -6 49 -6 33 -29 -14
-22 -14 -26 1 -48 8 -13 28 -27 43 -30 74 -15 241 -37 268 -34 28 3 30 1 36
-40 4 -29 1 -46 -8 -53 -7 -7 -13 -22 -13 -34 0 -52 -51 -55 -69 -4 -11 31
-38 38 -59 17 -7 -7 -12 -35 -12 -64 0 -54 -17 -81 -44 -71 -15 6 -49 -26 -60
-58 -4 -11 -14 -53 -21 -94 -20 -101 -45 -149 -110 -204 -39 -34 -57 -59 -65
-87 -12 -45 -42 -70 -85 -70 -16 0 -36 -4 -43 -8 -7 -5 -19 -50 -26 -102 -10
-61 -21 -102 -35 -121 l-20 -27 20 -26 c17 -22 29 -26 68 -26 66 0 82 -20 85
-104 0 -36 -1 -66 -4 -66 -25 0 -143 111 -246 232 -117 137 -173 158 -252 96
-75 -60 -91 -91 -118 -226 -6 -33 -7 -34 -47 -29 -23 3 -68 9 -101 13 l-58 7
-69 -74 c-72 -76 -109 -138 -109 -181 0 -14 13 -50 30 -81 17 -31 30 -61 30
-67 0 -6 -16 -18 -35 -26 -46 -19 -71 -61 -91 -151 -25 -114 -4 -171 91 -242
75 -57 95 -80 95 -112 0 -41 -18 -49 -92 -42 -77 7 -138 -9 -138 -37 0 -24
-49 -52 -139 -79 -93 -28 -121 -46 -121 -77 0 -27 31 -44 81 -44 43 0 38 -31
-11 -64 -22 -14 -47 -37 -56 -52 -16 -24 -16 -27 2 -52 26 -36 142 -93 201
-99 53 -6 103 -40 81 -55 -7 -4 -53 -8 -103 -8 -181 0 -238 -44 -185 -143 30
-55 27 -68 -12 -56 -35 10 -78 -10 -78 -36 0 -26 -19 -26 -78 4 -32 16 -74 32
-94 36 -31 6 -38 4 -48 -14 -9 -18 -7 -28 9 -55 11 -18 29 -40 40 -50 11 -10
19 -22 16 -25 -2 -4 -35 -2 -74 3 -52 7 -77 6 -97 -3 -24 -11 -26 -15 -22 -59
6 -66 46 -148 102 -211 38 -42 45 -56 35 -67 -6 -8 -15 -14 -19 -14 -4 0 -38
28 -76 61 -92 82 -136 110 -173 111 -41 1 -68 -24 -83 -80 -16 -56 -28 -61
-50 -22 -12 21 -25 30 -43 30 -30 0 -114 -51 -174 -106 -36 -32 -41 -41 -41
-82 0 -47 1 -46 -98 -129 -29 -25 -33 -35 -39 -95 -7 -85 7 -112 66 -122 50
-8 71 -36 71 -96 0 -25 5 -51 11 -57 7 -7 -4 -29 -38 -74 -63 -84 -149 -241
-165 -302 -11 -41 -10 -49 2 -58 8 -5 23 -7 33 -5 50 12 68 -45 22 -66 -33
-15 -32 -23 11 -52 29 -20 41 -23 62 -15 33 13 62 2 62 -21 0 -21 30 -44 70
-53 22 -6 25 -11 24 -54 0 -26 -3 -49 -7 -50 -28 -10 -54 2 -90 42 -46 51 -78
57 -145 30 -111 -47 -141 -95 -121 -194 26 -123 -18 -152 -122 -82 -51 34 -69
41 -111 41 -44 0 -54 -4 -81 -33 -18 -19 -41 -49 -52 -68 -16 -26 -27 -33 -45
-32 -97 10 -101 9 -135 -30 -18 -20 -43 -58 -56 -82 l-24 -45 28 -50 c27 -48
28 -70 4 -70 -21 0 -87 -53 -108 -87 -28 -44 -27 -98 1 -128 12 -12 56 -37 98
-55 150 -62 212 -118 197 -179 -3 -14 -25 -57 -47 -94 -46 -76 -59 -146 -38
-197 19 -45 74 -90 188 -149 134 -70 137 -76 107 -166 -29 -82 -31 -108 -10
-125 13 -11 21 -6 50 24 40 42 52 33 41 -29 -5 -27 -2 -39 13 -54 17 -17 25
-19 48 -10 49 18 92 49 127 92 24 28 38 39 45 32 7 -7 -4 -34 -34 -85 -68
-114 -62 -145 29 -165 26 -6 27 -7 12 -24 -25 -27 -19 -48 26 -97 52 -57 73
-68 120 -65 31 1 44 -4 73 -34 31 -30 42 -35 85 -35 56 0 80 18 80 59 0 32 27
61 56 61 11 0 25 5 31 11 8 8 28 3 74 -19 79 -37 191 -72 231 -72 28 0 30 2
26 31 -6 38 14 49 43 23 18 -16 21 -16 35 -2 13 12 14 20 5 36 -16 30 -14 72
4 72 22 0 29 46 16 115 -15 86 -14 103 14 160 14 28 25 67 25 87 0 32 5 40 31
54 31 16 31 17 24 67 -5 29 -9 71 -9 94 -2 59 -15 70 -66 53 -36 -12 -42 -11
-60 5 -11 10 -20 27 -20 37 0 11 -33 52 -74 92 -72 70 -95 109 -83 140 6 15
17 18 151 50 88 20 129 46 170 107 31 47 34 48 49 31 24 -26 21 -36 -17 -65
-37 -29 -56 -83 -56 -164 0 -115 33 -162 160 -227 71 -37 91 -52 96 -73 13
-49 -13 -75 -116 -116 -105 -41 -162 -87 -182 -146 -18 -55 -12 -194 10 -245
21 -47 58 -68 144 -80 72 -11 101 -46 138 -165 16 -54 40 -111 52 -126 66 -85
222 -69 429 42 14 8 31 -60 26 -104 -8 -77 16 -138 82 -204 49 -49 69 -61 131
-80 131 -40 324 -11 359 54 23 42 48 67 69 67 9 0 59 -36 111 -80 116 -98 176
-130 247 -130 67 0 96 23 135 108 16 37 40 78 53 92 45 48 60 91 64 186 l4 91
74 36 c41 21 76 37 79 37 3 0 -4 -18 -16 -39 -12 -24 -18 -48 -14 -63 11 -42
93 -135 158 -178 56 -38 67 -41 114 -38 29 2 53 2 53 0 0 -1 -9 -21 -20 -43
-22 -43 -17 -69 18 -88 26 -14 34 -4 65 74 48 123 67 150 110 153 20 2 37 -1
37 -5 0 -5 -18 -67 -39 -138 l-40 -130 25 -22 c33 -30 41 -29 58 10 l14 32 1
-40 c1 -48 40 -114 82 -139 15 -9 62 -21 105 -26 42 -5 82 -14 89 -20 7 -6 15
-35 19 -66 11 -96 36 -118 176 -154 113 -29 141 -23 187 41 51 72 66 77 102
36 67 -76 197 -116 273 -84 58 25 70 58 84 249 13 184 30 251 74 298 25 27 34
30 87 30 32 0 93 -7 135 -17 l78 -17 17 -45 c9 -24 34 -66 55 -92 70 -89 234
-145 398 -136 119 6 178 35 269 134 38 41 93 90 123 110 66 42 78 58 78 99 0
43 -19 86 -106 239 -41 73 -77 150 -82 175 -9 46 1 104 18 115 13 8 13 -25 -1
-77 -11 -38 -9 -48 10 -85 23 -46 55 -62 89 -44 31 17 40 14 78 -24 33 -33 35
-39 39 -117 4 -93 22 -207 35 -229 8 -11 13 -12 30 -2 11 7 26 13 34 13 17 0
29 -27 16 -35 -21 -13 -9 -25 23 -25 21 0 41 8 52 20 17 18 20 19 35 5 22 -20
50 -10 130 46 52 37 67 43 132 48 40 4 83 12 96 19 19 11 28 10 55 -7 32 -20
34 -20 63 -2 16 10 38 28 48 40 11 11 29 21 41 21 48 0 59 43 20 80 -32 30
-32 61 1 100 15 17 30 45 33 62 l6 31 32 -27 c26 -22 34 -38 39 -76 8 -60 23
-75 96 -90 106 -21 177 6 204 77 38 104 43 112 68 119 39 9 47 3 90 -76 63
-113 132 -137 222 -76 49 33 61 32 104 -4 43 -37 69 -38 147 -1 70 34 98 67
90 110 -3 15 -4 37 -1 48 5 18 12 20 43 16 75 -10 171 37 185 91 9 35 -8 71
-69 152 -68 90 -95 144 -95 189 0 45 24 70 109 116 79 41 121 99 121 166 0 56
-14 88 -87 200 -88 133 -88 133 -9 211 66 64 81 97 50 109 -9 3 -32 -2 -51
-11 -20 -9 -38 -15 -40 -12 -3 3 6 25 21 50 32 54 33 72 4 87 -29 16 -145 6
-187 -15 -32 -17 -58 -11 -43 9 4 6 39 29 77 52 103 60 118 105 50 149 -30 19
-32 34 -6 34 29 0 44 25 36 62 -14 61 -46 138 -59 138 -26 0 -65 41 -72 76 -7
37 -50 78 -94 88 -29 7 -39 1 -64 -37 -16 -26 -22 -28 -54 -23 -21 3 -45 7
-54 8 -9 2 -33 24 -52 50 l-36 47 29 73 c36 91 67 195 81 274 13 75 -3 127
-59 194 -63 75 -65 81 -58 213 7 129 -4 206 -31 230 -9 8 -42 22 -72 32 -80
25 -89 32 -194 164 -99 123 -145 167 -209 197 -33 16 -45 17 -107 6 -103 -18
-107 -17 -102 17 4 31 -19 58 -135 158 -62 53 -74 75 -103 182 -7 25 -26 58
-47 78 -28 29 -34 41 -29 62 24 103 22 108 -74 166 -41 25 -59 43 -68 69 -22
60 -72 46 -113 -31 -24 -44 -65 -49 -141 -17 -45 19 -70 24 -96 19 -34 -6 -34
-6 -28 22 11 47 39 77 106 111 89 46 92 51 86 152 -6 106 -35 188 -81 229 -37
32 -56 37 -173 45 -81 6 -117 23 -133 63 -13 34 5 61 89 138 72 66 101 119
102 183 0 57 -10 74 -88 154 l-66 68 27 55 c31 63 35 119 10 155 -42 62 -127
149 -154 159 -23 8 -44 6 -95 -10 -77 -24 -94 -20 -94 19 0 106 -113 242 -201
242 -41 0 -87 -32 -134 -91 l-47 -60 -22 20 c-11 10 -39 22 -61 26 -22 4 -46
14 -53 23 -10 14 -6 19 30 37 23 11 43 25 45 31 4 14 -90 110 -126 128 -24 13
-30 27 -53 128 -41 175 -42 182 -22 199 16 13 17 12 12 -8 -13 -51 56 -85 125
-61 42 16 246 228 278 290 32 64 56 138 70 222 7 43 18 76 24 76 25 0 45 37
45 82 l0 45 51 -5 c53 -5 199 12 257 30 36 11 53 49 34 78 -9 15 -6 18 30 24
79 13 138 59 138 109 0 6 -30 41 -67 76 -38 35 -59 60 -48 56 11 -5 52 -17 90
-27 163 -45 317 11 224 82 -55 41 -170 142 -167 146 2 1 28 -6 58 -16 99 -34
223 -22 276 27 38 35 29 63 -31 93 -62 32 -123 77 -136 102 -11 21 -12 21 121
-40 108 -49 192 -59 214 -23 13 20 -20 63 -83 111 -113 83 -162 148 -61 79 72
-49 169 -95 258 -123 93 -29 154 -33 171 -12 21 25 -4 53 -87 98 -100 54 -203
153 -242 231 -28 56 -37 87 -25 87 3 0 33 -19 68 -43 35 -24 98 -58 141 -76
142 -59 526 -145 571 -127 29 11 11 38 -40 58 -27 11 -79 39 -115 63 -64 43
-234 194 -227 201 2 3 37 -11 78 -30 118 -56 240 -77 479 -83 205 -5 267 2
258 29 -5 14 -18 21 -79 42 -26 9 -74 33 -108 54 -70 42 -264 182 -259 187 2
2 39 -5 83 -16 129 -31 338 -43 517 -30 181 13 228 24 228 51 0 14 -9 21 -37
25 -83 14 -149 39 -280 105 -187 93 -194 99 -107 88 220 -29 737 63 760 134
10 32 -12 44 -137 77 -131 34 -580 179 -592 191 -4 4 81 10 190 14 264 10 347
30 518 129 208 120 412 315 308 294 -16 -3 -51 -12 -80 -21 -74 -21 -261 -38
-388 -34 -110 3 -110 3 -65 16 65 20 146 63 218 117 219 161 524 535 436 535
-9 0 -123 -54 -254 -120 -223 -112 -339 -165 -346 -158 -1 2 44 38 101 81 197
149 343 325 439 528 82 173 129 387 92 418 -14 12 -19 11 -36 -4 -11 -10 -20
-23 -20 -30 0 -6 -14 -39 -30 -72 -39 -79 -171 -206 -306 -296 -55 -37 -104
-67 -107 -67 -3 0 23 38 57 84 75 98 156 240 221 385 55 124 105 268 105 305
0 58 -28 40 -180 -118 -229 -235 -406 -370 -559 -426 -88 -32 -365 -103 -491
-125 -330 -58 -474 -75 -634 -75 -55 0 -145 -7 -199 -15 -343 -52 -980 -247
-1294 -397 l-73 -34 -31 32 c-60 62 -115 76 -409 103 -144 14 -203 43 -244
124 -39 77 -40 153 -2 252 65 166 68 183 63 295 -13 266 -123 584 -267 779
-71 96 -125 141 -223 186 -147 68 -280 82 -397 42z m4866 -743 c-89 -261 -283
-586 -403 -675 -51 -39 -124 -58 -293 -79 -103 -13 -360 -37 -360 -34 0 2 9
19 21 39 27 45 20 92 -22 139 l-29 34 77 17 c252 54 426 115 536 188 110 74
281 221 397 344 52 55 96 99 97 98 2 -1 -8 -33 -21 -71z m-8955 -215 c124
-111 299 -237 394 -284 91 -44 257 -94 455 -136 58 -12 107 -24 109 -25 2 -2
-10 -19 -28 -39 -38 -44 -43 -107 -11 -147 l19 -25 -52 4 c-325 26 -552 58
-617 87 -14 6 -57 42 -96 81 -113 111 -258 348 -347 565 -58 142 -57 143 25
60 41 -41 108 -105 149 -141z m9104 -124 c-67 -288 -249 -562 -495 -745 -47
-35 -99 -76 -116 -92 l-30 -28 -150 15 c-82 8 -214 19 -294 25 -80 6 -159 13
-176 15 l-31 5 33 35 c55 58 59 161 10 235 l-26 39 33 5 c17 3 113 12 212 21
99 9 224 23 279 31 66 11 102 12 108 6 14 -14 74 8 172 65 214 122 384 264
446 371 19 33 36 59 37 58 1 -1 -4 -29 -12 -61z m-9333 -190 c98 -94 255 -199
416 -278 100 -49 127 -59 141 -50 13 8 50 6 142 -7 68 -10 216 -26 329 -35
113 -9 207 -19 209 -21 3 -2 -5 -14 -17 -27 -29 -31 -42 -70 -42 -128 0 -57
10 -81 52 -125 l29 -31 -118 -7 c-65 -4 -221 -16 -347 -26 l-229 -20 -91 67
c-176 129 -197 146 -284 238 -97 100 -159 188 -222 311 -39 77 -91 224 -104
294 -5 32 -3 29 26 -23 18 -34 63 -88 110 -132z m8065 -82 c20 -9 41 -30 51
-50 14 -30 14 -36 0 -66 -20 -43 -72 -68 -146 -72 -32 -2 -100 -8 -152 -14
-52 -6 -219 -22 -370 -36 -151 -14 -345 -35 -430 -45 -85 -11 -161 -20 -167
-20 -8 0 -13 12 -13 28 0 35 -23 68 -63 89 l-32 16 90 24 c241 62 375 84 580
93 173 8 550 51 564 65 10 10 55 4 88 -12z m-6572 -98 c113 -17 262 -30 400
-35 121 -5 261 -16 310 -24 136 -24 425 -90 425 -98 0 -4 -9 -9 -20 -13 -31
-10 -72 -65 -67 -92 5 -28 4 -28 -155 -8 -65 8 -272 28 -460 45 -189 16 -390
35 -448 41 -58 7 -120 11 -139 10 -88 -3 -171 47 -171 104 0 53 78 112 130 99
8 -2 96 -15 195 -29z m5280 -135 c25 -24 31 -45 17 -67 -4 -7 -57 -22 -117
-33 -237 -46 -409 -101 -443 -142 -25 -30 7 -30 71 1 34 17 112 44 172 59 186
48 302 31 335 -49 19 -46 1 -57 -110 -68 -194 -20 -391 -77 -398 -115 -4 -21
-4 -21 93 14 102 37 183 50 268 43 72 -5 80 -8 107 -40 37 -41 38 -62 4 -94
-25 -24 -30 -24 -262 -31 -246 -6 -337 -20 -337 -48 0 -17 12 -17 105 0 36 7
128 13 205 14 127 1 144 -1 181 -21 62 -33 96 -78 92 -122 -3 -35 -4 -36 -43
-35 -22 0 -96 10 -165 22 -217 38 -390 45 -390 16 0 -10 13 -14 53 -14 28 0
111 -7 183 -15 104 -12 144 -22 191 -44 87 -42 143 -116 112 -147 -12 -11 -34
-7 -137 26 -138 44 -341 95 -420 105 -48 6 -54 5 -50 -11 2 -14 21 -21 83 -31
130 -22 296 -70 358 -103 70 -39 107 -88 107 -145 0 -23 -5 -46 -12 -53 -20
-20 -76 -14 -136 15 -31 15 -62 28 -67 29 -6 1 -62 22 -125 47 -63 25 -158 60
-210 78 -52 18 -96 33 -97 33 -1 1 -9 53 -18 116 -13 98 -100 480 -120 532 -6
14 10 25 82 58 114 53 396 158 548 205 66 20 125 38 130 41 6 2 38 2 72 1 50
-2 68 -8 88 -27z m1254 -25 c60 -51 68 -161 15 -216 -15 -16 -44 -34 -64 -39
-20 -5 -130 -6 -260 -2 -124 3 -369 6 -545 5 l-320 -2 -1 36 c0 29 -9 44 -42
74 -22 21 -37 41 -32 44 25 16 341 54 735 89 154 14 296 27 315 29 19 2 65 5
102 5 58 2 70 -1 97 -23z m-5049 -90 c247 -76 490 -164 588 -214 l34 -18 -112
-33 c-62 -18 -141 -35 -176 -38 -68 -5 -76 -16 -19 -26 44 -9 57 -34 27 -54
-46 -30 -20 -31 39 -1 34 16 63 29 65 27 2 -3 -18 -21 -45 -41 -59 -45 -91
-90 -127 -179 l-28 -68 -75 0 c-75 0 -277 -26 -420 -53 -68 -13 -75 -13 -91 3
-24 24 -15 61 23 101 57 58 95 69 249 69 75 0 172 -5 215 -12 103 -15 125 -15
130 -1 11 30 -162 53 -408 53 -208 0 -243 8 -255 55 -7 29 14 67 49 90 56 36
298 11 423 -44 36 -16 45 -17 54 -6 9 11 6 17 -12 29 -40 26 -192 64 -320 81
-209 28 -212 28 -216 49 -12 61 67 106 184 106 92 0 280 -44 365 -84 61 -30
79 -32 79 -10 0 37 -202 103 -440 145 -159 27 -158 27 -170 49 -8 15 -5 24 13
45 50 59 132 54 377 -20z m-1385 15 c506 -41 966 -89 1009 -106 11 -4 3 -17
-30 -48 -37 -36 -44 -49 -44 -80 0 -36 -1 -38 -26 -32 -32 8 -589 9 -907 1
-270 -6 -300 -2 -346 50 -25 29 -31 45 -31 81 0 59 25 111 64 135 38 23 11 23
311 -1z m7666 -107 c-128 -181 -350 -387 -496 -460 -56 -28 -171 -64 -187 -58
-13 5 -568 85 -589 85 -6 0 0 13 14 30 53 62 59 148 17 230 l-20 40 32 0 c36
0 172 -11 453 -36 130 -12 182 -20 188 -30 21 -36 106 -5 412 149 116 58 211
106 213 106 2 1 -15 -25 -37 -56z m-9154 -117 c222 -105 354 -161 416 -178 45
-12 50 -11 62 6 16 21 53 26 390 50 116 9 238 18 272 22 l62 6 -23 -44 c-47
-85 -42 -168 13 -227 16 -17 28 -31 27 -31 -10 0 -485 -63 -561 -74 -96 -15
-103 -14 -170 5 -132 40 -245 109 -404 248 -90 78 -287 301 -267 301 3 0 86
-38 183 -84z m7580 3 c257 -11 262 -13 301 -89 12 -24 22 -61 22 -81 0 -42
-33 -97 -70 -117 -28 -15 -123 -11 -325 13 -180 22 -651 65 -709 65 -28 0 -61
3 -72 6 -20 5 -21 7 -7 35 18 36 10 79 -23 118 -22 27 -23 30 -6 37 49 23 534
30 889 13z m-5172 -85 c86 -7 92 -13 61 -59 -29 -43 -33 -85 -11 -119 l15 -23
-132 -6 c-144 -7 -517 -39 -718 -62 -236 -26 -332 -29 -368 -11 -45 23 -64 57
-64 115 1 96 47 146 145 156 185 19 885 25 1072 9z m4752 -189 c434 -42 561
-60 585 -81 81 -73 73 -251 -14 -304 -39 -24 -80 -25 -138 -5 -24 8 -52 17
-64 19 -12 2 -106 26 -211 54 -173 46 -522 131 -603 147 -28 6 -32 10 -26 28
17 54 -9 126 -59 163 -20 15 -12 16 120 10 79 -3 263 -17 410 -31z m-4635 -89
c-44 -48 -58 -89 -43 -129 10 -25 9 -26 -47 -37 -144 -29 -519 -116 -731 -170
-129 -33 -251 -60 -270 -60 -111 0 -177 145 -118 260 36 71 51 77 247 99 316
35 796 75 949 80 l54 1 -41 -44z m5777 -51 c124 -19 167 -29 177 -43 11 -15
33 -17 216 -16 129 1 231 7 281 16 78 15 87 14 64 -6 -184 -152 -381 -261
-520 -286 -28 -5 -158 -14 -287 -20 l-235 -9 -128 36 -129 36 30 23 c16 13 39
47 52 76 28 66 25 167 -9 223 -11 20 -21 37 -21 39 0 3 293 -37 509 -69z
m-7021 -57 c-47 -90 -32 -214 34 -280 l38 -38 -53 -14 c-188 -53 -233 -62
-287 -55 -30 4 -118 8 -195 8 -279 3 -377 24 -573 126 -103 53 -289 181 -279
191 2 3 36 -1 73 -8 43 -8 155 -13 297 -13 198 0 230 2 240 16 9 12 70 24 247
48 367 50 433 59 457 60 l23 1 -22 -42z m5467 -17 c155 -34 412 -98 609 -150
134 -36 199 -59 224 -77 84 -65 84 -215 -1 -243 -29 -10 -44 -7 -133 29 -121
50 -653 249 -747 280 l-68 22 7 34 c5 26 0 44 -20 78 -18 32 -22 46 -13 49 13
5 15 5 142 -22z m-3666 -34 c-21 -43 -23 -44 -98 -62 -42 -9 -145 -37 -230
-61 -84 -24 -157 -41 -162 -38 -18 11 -8 54 21 87 60 68 220 113 412 116 l78
1 -21 -43z m-508 -53 c-29 -37 -44 -89 -32 -112 9 -16 -4 -22 -137 -66 -183
-60 -558 -192 -714 -252 -65 -24 -127 -44 -139 -44 -11 0 -37 16 -56 35 -34
34 -35 38 -31 91 5 60 26 96 77 131 31 21 269 83 661 172 256 58 311 69 353
70 l38 1 -20 -26z m442 -65 c-10 -17 -51 -72 -91 -122 -80 -102 -133 -137
-209 -137 -117 0 -78 146 56 207 43 20 165 59 259 82 2 1 -5 -13 -15 -30z
m3112 -90 c99 -38 198 -81 221 -94 78 -46 131 -126 107 -164 -21 -34 -60 -24
-225 57 -90 44 -197 92 -240 107 -84 30 -76 18 -93 134 l-7 44 28 -7 c16 -4
110 -39 209 -77z m728 -13 c313 -114 466 -174 500 -198 62 -44 86 -152 48
-214 -24 -39 -79 -60 -119 -46 -15 5 -178 79 -362 164 -184 85 -349 160 -366
167 l-32 12 24 24 c29 29 33 103 9 149 -8 15 -15 31 -15 33 0 15 99 -14 313
-91z m977 -26 c85 -24 162 -49 170 -56 27 -22 516 -183 710 -233 l75 -19 -40
-17 c-48 -21 -221 -60 -335 -76 -47 -6 -152 -12 -235 -12 -158 0 -226 13 -270
53 -11 10 -82 44 -158 76 l-137 57 24 26 c13 14 29 36 35 48 18 35 13 124 -8
167 -18 34 -18 38 -3 33 9 -2 87 -24 172 -47z m-5192 33 c-45 -87 -46 -137 -7
-179 l22 -24 -39 -16 c-92 -38 -316 -134 -539 -231 -208 -91 -245 -104 -280
-99 -60 7 -95 51 -95 117 0 56 26 112 63 140 29 22 191 81 542 200 267 90 343
111 333 92z m962 -73 c37 -40 58 -105 75 -232 7 -57 31 -159 53 -228 22 -69
43 -147 47 -175 4 -27 18 -99 32 -160 37 -165 29 -205 -67 -325 -29 -36 -67
-94 -85 -130 -18 -36 -53 -88 -78 -117 -72 -84 -89 -117 -81 -158 l6 -36 -39
7 c-39 6 -41 5 -72 -41 -17 -26 -38 -62 -46 -82 -18 -42 -35 -39 -54 10 -12
33 -12 39 3 56 14 16 14 20 2 30 -8 6 -20 10 -26 9 -9 -2 -27 40 -52 115 l-38
118 27 23 c24 21 26 26 14 40 -13 15 -15 15 -32 0 -11 -10 -19 -15 -19 -13 0
2 -7 56 -14 119 -8 63 -14 115 -13 116 1 1 21 11 43 22 23 12 66 43 95 70 47
43 52 51 40 66 -12 14 -19 11 -68 -34 -31 -28 -68 -57 -83 -65 -27 -14 -28
-14 -34 17 -3 17 -6 50 -6 75 0 38 6 50 46 93 39 42 45 52 34 65 -11 13 -17
11 -47 -15 -18 -17 -37 -30 -42 -30 -4 0 -14 32 -23 71 l-15 70 43 37 c23 21
67 51 98 66 39 20 56 34 54 45 -5 24 -31 15 -121 -39 -45 -27 -84 -47 -88 -45
-3 3 -9 27 -12 55 -6 49 -4 54 39 113 48 66 100 103 231 163 55 25 71 37 67
49 -8 19 -25 14 -117 -32 -58 -29 -67 -31 -58 -14 6 11 43 48 83 83 40 35 97
86 127 114 104 95 126 102 171 54z m-2160 -32 c-22 -48 -26 -128 -9 -161 6
-12 23 -34 37 -49 l25 -27 -29 -11 c-171 -65 -283 -113 -287 -124 -3 -7 -34
-21 -69 -32 -149 -45 -590 -11 -811 62 -27 9 -46 18 -44 20 2 2 80 25 173 50
227 61 579 170 632 195 23 12 122 43 220 69 97 27 178 49 179 49 1 1 -7 -18
-17 -41z m4597 -42 c112 -45 194 -83 203 -95 3 -4 26 -19 52 -34 57 -33 98
-89 98 -134 0 -68 -77 -48 -255 67 -66 42 -135 85 -153 94 -18 9 -37 27 -41
39 -10 27 -23 107 -17 107 2 0 53 -20 113 -44z m904 -203 c152 -73 180 -102
187 -194 4 -54 2 -60 -26 -89 -17 -17 -41 -30 -55 -30 -13 0 -86 40 -163 88
-76 48 -205 128 -285 176 l-147 87 24 24 c28 28 30 61 9 112 -8 19 -15 37 -15
38 0 4 320 -140 471 -212z m-1337 -109 c114 -534 120 -600 77 -974 -70 -612
-128 -868 -202 -894 -15 -5 -41 -4 -67 4 -66 17 -74 44 -80 276 -6 244 4 334
88 839 37 226 73 466 79 535 7 69 19 163 27 210 18 95 21 180 11 255 -14 102
12 5 67 -251z m-2910 191 c-10 -24 -13 -51 -9 -71 12 -65 0 -80 -109 -140 -55
-32 -179 -103 -275 -160 -95 -57 -184 -104 -197 -104 -39 0 -72 21 -89 57 -31
65 4 155 78 197 58 33 609 268 615 262 1 -2 -5 -20 -14 -41z m5014 -72 c109
-45 146 -65 155 -84 7 -13 37 -41 67 -61 74 -49 278 -156 364 -189 37 -14 64
-29 60 -31 -23 -14 -281 -18 -403 -8 -167 14 -267 39 -351 88 -36 20 -104 55
-152 77 l-86 40 38 33 c21 18 44 49 50 68 12 35 9 112 -4 145 -7 15 -2 15 56
-1 35 -10 128 -44 206 -77z m-1604 -26 c144 -97 196 -161 196 -240 0 -69 -45
-73 -127 -9 -26 21 -77 57 -113 81 l-65 43 -22 101 c-12 56 -22 106 -23 110 0
10 69 -29 154 -86z m-4441 1 c-20 -84 5 -164 64 -204 l31 -21 -86 -38 c-48
-21 -119 -56 -157 -76 -83 -45 -199 -74 -350 -89 -118 -11 -296 -11 -410 -1
l-70 6 65 24 c93 33 334 152 409 200 35 23 65 50 68 60 6 24 356 160 436 170
5 1 5 -14 0 -31z m4952 -86 c165 -99 228 -151 258 -214 43 -91 5 -167 -78
-153 -57 9 -107 41 -247 158 -68 56 -140 116 -162 132 l-39 29 25 11 c45 18
58 36 58 77 0 22 -5 48 -11 59 -10 19 -9 20 13 8 13 -6 95 -55 183 -107z m754
-102 c91 -41 128 -64 180 -112 83 -78 274 -220 371 -276 l75 -44 -175 5 c-221
7 -324 28 -466 95 -57 27 -101 52 -98 55 3 3 -36 33 -86 67 l-92 62 30 19 c17
10 38 32 47 48 17 34 20 117 5 155 l-9 25 52 -23 c29 -13 103 -47 166 -76z
m-4709 -22 c0 -51 3 -102 6 -113 4 -17 -11 -34 -80 -88 -156 -124 -248 -155
-301 -102 -15 14 -25 35 -25 52 1 43 34 108 78 150 34 33 294 192 315 193 4 0
7 -42 7 -92z m-686 5 c-16 -47 -17 -83 -3 -120 12 -34 58 -83 76 -83 28 0 10
-17 -69 -64 -45 -28 -90 -58 -100 -68 -26 -26 -143 -83 -220 -106 -37 -12
-113 -28 -170 -36 -108 -16 -398 -33 -398 -23 0 3 33 23 74 46 107 59 247 154
366 250 80 64 133 97 220 138 63 29 122 53 130 53 8 1 35 12 60 25 25 13 46
24 46 25 1 0 -4 -17 -12 -37z m4467 -49 c146 -118 219 -214 219 -289 0 -33 -2
-35 -32 -35 -59 1 -116 37 -278 176 -71 61 -81 74 -55 74 29 0 48 46 43 105
-3 30 -1 52 3 49 4 -2 49 -38 100 -80z m-333 -4 c72 -62 105 -116 100 -163 -2
-24 -8 -33 -25 -35 -28 -4 -99 32 -117 61 -11 18 -56 186 -56 212 0 9 15 -2
98 -75z m860 -58 c22 -10 90 -51 151 -91 87 -58 111 -79 111 -96 0 -46 146
-194 278 -280 23 -15 42 -29 42 -30 0 -6 -226 46 -307 70 -101 31 -228 87
-258 114 -27 25 -80 51 -102 51 -11 0 -37 18 -58 40 l-39 40 29 0 c40 0 93 34
106 68 6 15 9 51 7 80 -3 28 -4 52 -2 52 1 0 20 -8 42 -18z m-551 -198 c102
-99 123 -125 129 -157 9 -55 -14 -87 -67 -87 -63 0 -116 35 -228 149 l-104
106 37 3 c48 4 69 36 65 96 l-4 44 25 -18 c14 -10 80 -71 147 -136z m-4187
110 c-34 -89 22 -174 115 -174 l37 0 -50 -42 c-29 -25 -61 -44 -77 -45 -15 0
-50 -17 -78 -36 -95 -65 -231 -115 -437 -160 -198 -43 -194 -43 -125 1 133 85
269 214 284 270 6 20 32 43 107 90 87 56 206 119 226 121 4 1 3 -11 -2 -25z
m485 -151 c4 -18 -3 -29 -36 -53 -46 -33 -131 -62 -154 -53 -22 8 -18 64 8
111 12 23 49 70 82 103 l60 61 17 -73 c10 -41 20 -84 23 -96z m4111 -34 c12
-13 26 -43 32 -67 26 -106 139 -235 271 -307 40 -22 68 -41 63 -43 -17 -5
-133 28 -199 58 -35 16 -96 49 -136 74 -40 24 -81 47 -92 50 -11 3 -32 23 -46
44 -15 20 -54 66 -87 102 l-59 65 44 -4 c67 -5 87 17 80 92 l-5 57 56 -49 c32
-27 66 -60 78 -72z m-723 14 c1 -29 -3 -48 -10 -50 -10 -4 -13 13 -13 64 1 53
3 64 11 50 6 -10 12 -39 12 -64z m-3634 -17 c-20 -73 25 -124 100 -110 36 7
36 7 -58 -92 -96 -102 -143 -134 -320 -219 -74 -36 -198 -75 -236 -75 -11 0
16 19 60 43 137 73 285 239 285 321 0 19 21 43 88 99 48 41 88 74 89 73 1 -1
-2 -19 -8 -40z m3901 -221 c68 -140 -71 -245 -225 -170 -92 45 -89 36 -74 179
7 69 17 126 22 126 21 0 57 51 57 82 0 33 2 32 101 -72 55 -58 109 -123 119
-145z m-3580 -2 c0 -6 -15 -15 -32 -19 -80 -17 -128 5 -128 58 0 41 15 67 63
110 l42 36 27 -86 c15 -48 28 -92 28 -99z m3864 58 c31 -37 56 -78 56 -90 0
-34 43 -83 131 -151 43 -34 79 -65 79 -69 0 -17 -98 11 -190 54 -53 25 -105
45 -116 45 -11 0 -55 36 -104 85 l-85 85 51 0 c60 0 100 30 110 80 4 16 8 30
9 30 2 0 28 -31 59 -69z m-4059 -53 c14 -46 57 -73 114 -72 l47 0 -84 -80
c-68 -65 -93 -83 -133 -93 -27 -7 -70 -23 -96 -37 -27 -13 -79 -33 -117 -45
-119 -37 -125 -27 -26 43 86 60 160 138 160 167 0 19 104 149 119 149 4 0 11
-14 16 -32z m3986 -217 c23 -39 104 -107 156 -132 36 -18 42 -24 31 -34 -45
-42 -166 -46 -253 -9 -33 14 -69 28 -80 31 -11 4 -60 31 -110 62 l-90 55 43 8
c24 4 58 17 77 28 37 23 75 91 75 133 0 25 5 22 67 -44 37 -39 75 -83 84 -98z
m-3727 35 c14 -44 24 -81 22 -83 -2 -3 -18 8 -35 24 -34 30 -49 82 -37 129 9
36 19 23 50 -70z m-94 19 c0 -61 55 -130 117 -149 32 -10 38 -37 12 -57 -30
-23 -111 -63 -194 -96 -59 -24 -84 -28 -165 -28 -77 0 -102 4 -124 19 l-29 18
60 29 c61 29 93 58 230 207 42 45 80 82 85 82 4 0 8 -11 8 -25z m3359 -51 c67
-48 91 -88 91 -148 0 -81 -87 -119 -175 -76 -27 13 -44 27 -41 35 2 7 15 62
28 124 12 61 25 111 28 111 3 0 34 -21 69 -46z m188 -122 c32 -20 101 -80 153
-133 52 -53 108 -105 125 -117 16 -11 26 -24 22 -29 -5 -4 -43 -8 -85 -8 -87
0 -219 35 -335 88 -68 31 -68 32 -40 42 75 27 107 75 101 151 -2 24 -2 44 -1
44 1 0 28 -17 60 -38z m-3368 -99 c18 -66 29 -127 33 -167 l3 -40 -50 -12
c-28 -6 -86 -21 -129 -33 -79 -21 -183 -27 -220 -12 -17 7 -13 12 30 41 27 19
85 70 129 114 69 69 164 143 187 145 4 1 12 -16 17 -36z m3096 -77 c37 -56 24
-140 -24 -166 -28 -14 -81 -13 -81 3 0 13 37 173 45 195 6 17 40 0 60 -32z
m123 -55 c33 -17 94 -64 144 -112 98 -95 100 -105 23 -135 -53 -20 -115 -15
-173 14 -20 11 -71 29 -112 42 -72 22 -74 23 -44 31 63 17 113 97 100 160 -3
16 -3 29 0 29 2 0 30 -13 62 -29z m-3164 -173 c4 -24 14 -67 23 -95 9 -29 13
-56 9 -60 -4 -5 -43 -8 -86 -8 -64 0 -84 4 -107 21 -15 12 -28 27 -28 34 0 14
166 159 176 154 4 -2 9 -23 13 -46z m3019 -52 c141 -50 238 -108 215 -131 -9
-9 -176 -35 -225 -35 -23 0 -59 8 -80 17 -21 10 -39 18 -39 18 -6 1 23 165 29
165 1 0 46 -16 100 -34z m-2693 -155 c32 -46 3 -48 -59 -4 -6 4 20 33 30 33 4
0 17 -13 29 -29z m-255 0 c3 -5 40 -21 83 -36 83 -28 120 -49 103 -59 -13 -8
-254 23 -272 35 -11 7 -7 16 19 39 33 30 56 38 67 21z m2817 -79 c3 -9 1 -26
-3 -37 -6 -15 -8 -11 -8 18 -1 40 4 48 11 19z m-402 -617 c-7 -8 -18 -15 -24
-15 -6 0 -2 7 8 15 25 19 32 19 16 0z m25 -615 c17 -4 23 -8 13 -9 -9 0 -78
-19 -154 -41 l-138 -39 -44 44 -43 44 143 4 c79 1 154 3 168 4 14 0 39 -3 55
-7z m-690 -20 c-3 -5 -13 -10 -21 -10 -8 0 -14 5 -14 10 0 6 9 10 21 10 11 0
17 -4 14 -10z m-357 -61 c-32 -25 -37 1 -6 33 22 22 23 22 26 4 2 -12 -6 -27
-20 -37z m-1933 -13 c12 -8 63 -61 112 -118 125 -144 162 -165 236 -133 13 5
17 2 17 -12 0 -49 -42 -53 -223 -22 -114 20 -125 20 -185 5 -75 -18 -208 -104
-277 -177 -38 -41 -45 -54 -45 -89 0 -55 9 -70 103 -173 l80 -88 -17 -52 c-9
-29 -20 -71 -23 -95 -3 -23 -9 -44 -12 -46 -3 -2 -44 11 -91 29 -73 28 -85 35
-82 54 2 15 -19 45 -77 105 -81 84 -81 85 -81 138 0 60 23 105 77 153 l34 30
-20 35 c-35 62 -42 84 -37 106 9 33 117 154 143 160 13 4 43 1 68 -5 76 -19
82 -17 96 42 24 100 63 165 109 179 19 6 65 -7 95 -26z m1158 -35 c8 -8 -1
-41 -12 -41 -3 0 -21 18 -39 40 l-32 39 37 -15 c21 -9 42 -19 46 -23z m896
-17 l-24 -27 54 6 c51 6 53 6 37 -12 -9 -10 -13 -20 -10 -24 4 -4 -7 -14 -25
-24 -17 -10 -29 -23 -27 -29 5 -12 -63 -54 -85 -54 -8 0 -22 7 -33 15 -17 13
-15 18 45 94 35 44 70 81 78 81 10 0 7 -8 -10 -26z m891 0 c0 -14 -91 -44
-115 -38 -14 3 -23 9 -20 13 5 5 69 20 128 30 4 0 7 -2 7 -5z m341 -52 c39
-40 48 -57 53 -98 10 -67 18 -78 52 -71 16 4 44 9 61 13 45 9 80 -2 106 -33
12 -15 37 -44 56 -65 42 -48 46 -98 13 -145 -30 -42 -28 -62 7 -74 42 -15 75
-86 76 -161 0 -51 -3 -60 -34 -92 -27 -28 -39 -34 -60 -30 -18 4 -35 -1 -51
-15 -21 -17 -22 -20 -7 -21 10 0 28 5 40 12 19 10 18 7 -6 -21 -34 -41 -35
-75 -3 -96 14 -9 64 -22 112 -29 80 -12 91 -16 116 -47 57 -68 78 -197 40
-248 -12 -16 -33 -28 -56 -32 -20 -3 -44 -13 -54 -23 -23 -20 -42 -79 -43
-137 -2 -83 -9 -94 -63 -96 -27 -1 -73 -14 -104 -29 -76 -36 -162 -30 -162 11
0 7 -5 17 -12 21 -8 5 -9 -2 -5 -23 3 -17 1 -35 -5 -41 -8 -8 -8 -26 2 -66 14
-61 9 -93 -25 -151 -19 -33 -32 -43 -69 -53 -30 -8 -60 -26 -86 -52 -40 -40
-41 -40 -115 -40 -71 0 -75 1 -97 30 -12 16 -30 30 -40 30 -24 0 -89 -60 -145
-132 -40 -53 -103 -101 -103 -80 0 19 -54 62 -78 62 -14 0 -49 18 -80 41 -77
58 -93 99 -98 253 -7 171 -10 186 -38 186 -13 0 -47 -8 -77 -19 -68 -23 -135
-35 -149 -26 -6 4 1 20 20 43 16 20 30 42 30 48 0 18 58 64 80 64 10 0 23 11
29 28 6 15 16 35 23 45 11 15 10 20 -6 32 -18 13 -18 15 3 43 11 16 34 35 51
42 32 13 40 37 15 46 -8 3 -14 16 -13 28 1 12 -17 49 -41 84 -38 57 -45 82
-21 82 5 0 7 -7 4 -15 -4 -10 0 -15 13 -15 18 0 93 -79 93 -98 0 -5 12 -15 26
-22 23 -13 30 -12 72 10 29 16 48 33 50 45 2 15 -26 51 -91 120 -93 99 -94
101 -99 158 -3 31 -4 57 -4 57 1 0 31 -30 66 -66 36 -37 57 -64 48 -61 -30 11
-28 -9 4 -33 19 -14 33 -18 37 -12 4 6 21 -4 43 -23 27 -26 36 -42 36 -64 -1
-17 5 -38 12 -46 8 -9 14 -30 14 -47 1 -42 26 -57 60 -35 31 21 36 66 8 74
-14 3 -17 12 -14 34 2 16 -2 36 -9 45 -10 13 -10 17 2 25 22 14 28 11 22 -11
-7 -27 14 -50 45 -50 20 0 23 -3 14 -12 -15 -15 -16 -60 -1 -75 14 -14 -23
-53 -51 -53 -11 0 -27 -11 -35 -24 -13 -19 -14 -28 -4 -50 23 -50 91 -45 97 7
3 22 10 28 45 35 48 10 56 6 72 -41 9 -27 9 -38 -1 -51 -10 -15 -12 -13 -11
16 2 28 -2 34 -22 36 -18 3 -33 -5 -53 -28 -39 -46 -37 -60 16 -94 15 -10 36
-16 46 -13 14 3 20 -1 22 -17 2 -16 10 -21 33 -21 24 0 31 5 33 24 2 13 -1 28
-7 34 -6 6 -11 16 -11 21 0 6 5 5 12 -2 7 -7 24 -12 39 -12 15 0 31 -4 34 -10
3 -5 14 -10 25 -10 18 0 30 19 30 48 0 10 9 23 20 30 11 7 20 21 20 31 0 13 5
18 18 14 10 -2 30 0 45 6 30 12 37 45 11 59 -13 7 -13 10 0 21 12 10 15 8 21
-8 7 -24 33 -35 51 -20 22 18 17 75 -7 92 -15 11 -17 17 -8 22 7 5 16 1 21 -9
17 -30 98 -11 98 23 0 20 -32 33 -65 28 -27 -4 -35 -2 -35 9 0 8 -6 17 -14 20
-7 3 -13 16 -13 29 0 13 -11 38 -23 55 -18 25 -27 30 -46 26 -31 -8 -30 4 1
38 14 15 25 35 25 45 0 58 -83 75 -101 21 -13 -36 -29 -39 -29 -7 0 38 -30 58
-68 48 -19 -6 -34 -6 -37 0 -4 5 -21 9 -38 10 -41 1 -61 10 -65 30 -2 12 4 15
23 12 19 -4 27 0 36 20 17 36 -8 83 -42 80 -19 -1 -30 7 -43 28 -10 16 -28 37
-42 45 -22 15 -26 15 -60 -5 l-36 -21 -28 20 c-33 24 -44 25 -36 5 3 -8 2 -15
-2 -15 -4 0 -71 23 -147 50 -245 88 -227 79 -223 109 3 22 8 26 38 29 44 4
419 -65 437 -79 7 -6 19 -9 26 -6 8 3 43 -1 78 -9 107 -22 143 -19 173 17 33
39 34 76 3 88 -32 12 -174 29 -397 46 -279 22 -300 26 -293 56 13 47 45 54
233 54 l175 -1 40 -28 c32 -22 48 -27 81 -23 24 2 51 -1 65 -9 43 -24 141 -12
161 19 8 13 -19 47 -37 47 -7 0 -15 20 -18 47 -5 44 -2 50 35 93 56 64 116
103 148 95 14 -3 46 -27 71 -53z m-2784 -58 c30 -6 30 -6 17 -42 -7 -21 -13
-49 -14 -64 0 -23 4 -28 24 -28 14 0 28 -5 31 -10 4 -6 39 -32 79 -60 41 -27
76 -55 79 -63 4 -10 -13 -17 -68 -26 -40 -7 -77 -17 -82 -24 -5 -7 -8 -28 -8
-47 0 -32 3 -35 33 -38 27 -3 32 -7 32 -30 0 -32 17 -18 22 18 3 23 10 26 142
52 77 15 144 24 148 21 5 -2 14 0 21 5 7 6 26 12 42 14 l30 3 -3 -50 c-2 -27
-7 -56 -12 -64 -4 -8 -88 -42 -186 -76 -189 -65 -244 -89 -244 -106 0 -23 22
-49 41 -49 11 0 22 -6 25 -14 3 -8 16 -17 29 -20 30 -8 39 -49 13 -65 -10 -6
-18 -7 -18 -2 0 15 -63 81 -78 81 -7 0 -28 -16 -45 -35 -23 -27 -39 -35 -63
-35 -36 0 -64 29 -64 67 0 12 -4 25 -10 28 -19 12 -10 25 14 19 24 -6 56 16
56 40 0 34 -66 50 -90 21 -8 -10 -17 -12 -28 -6 -9 5 -41 7 -71 4 -41 -3 -72
1 -115 16 -70 25 -165 27 -226 6 -51 -18 -71 -7 -68 35 1 15 -6 39 -16 54 -22
35 -13 61 27 76 18 7 55 35 82 61 51 49 89 69 129 69 19 0 22 -5 19 -27 -4
-33 10 -59 26 -49 6 4 11 23 11 43 l0 36 72 -5 c55 -4 76 -10 88 -25 37 -47
89 -54 157 -24 77 36 76 81 -3 81 l-42 0 -11 63 c-14 79 -14 117 -1 117 6 0
10 11 10 23 0 38 10 42 67 31z m2092 -20 c51 -11 35 -21 -41 -27 -40 -4 -95
-9 -123 -12 l-50 -6 30 17 c52 30 121 40 184 28z m-1692 -146 c27 -30 57 -78
52 -82 -2 -3 -36 -7 -75 -11 l-71 -7 -6 47 c-6 39 -4 50 10 61 27 20 67 17 90
-8z m728 -158 c-3 -5 -11 -10 -16 -10 -6 0 -7 5 -4 10 3 6 11 10 16 10 6 0 7
-4 4 -10z m777 -170 c60 -25 83 -41 104 -72 18 -26 30 -35 35 -27 4 7 5 19 2
26 -5 12 2 11 33 -2 22 -9 56 -23 76 -32 30 -12 37 -20 40 -46 4 -39 36 -51
45 -17 6 22 30 22 25 0 -2 -7 5 -22 15 -34 10 -11 11 -15 3 -8 -32 28 -99 -4
-84 -42 8 -21 47 -31 72 -17 13 7 22 7 30 -1 8 -8 15 -8 24 0 9 7 18 7 31 -2
18 -14 24 -32 6 -20 -6 3 -24 -3 -40 -15 -33 -25 -43 -26 -58 -7 -7 8 -36 18
-64 21 -29 4 -63 15 -75 26 -22 17 -22 20 -8 35 20 20 20 48 0 68 -25 26 -51
15 -62 -27 l-7 -26 -99 74 c-90 67 -102 80 -123 131 -14 34 -18 54 -10 51 7
-2 47 -19 89 -37z m-1412 -40 c0 -18 -45 -39 -70 -33 -24 6 -23 7 15 25 46 20
55 22 55 8z m-175 -130 c13 0 28 8 34 17 14 26 22 12 12 -23 -5 -21 -14 -29
-32 -30 -13 -1 -28 -3 -34 -5 -15 -6 -54 32 -49 47 15 50 15 50 30 22 10 -19
23 -28 39 -28z m-722 -101 c54 -15 103 -62 137 -134 36 -75 38 -95 9 -95 -11
0 -17 -4 -14 -10 3 -5 15 -10 26 -10 16 0 19 -7 19 -47 0 -53 -29 -126 -55
-140 -28 -16 -110 1 -150 31 -39 30 -40 32 -50 88 -3 20 -21 60 -40 88 -33 49
-34 52 -24 108 12 72 25 102 43 102 7 0 19 7 26 15 15 18 23 18 73 4z m530
-52 c-3 -4 -6 -7 -7 -5 -1 2 -8 12 -16 22 -14 18 -14 18 7 6 12 -8 19 -18 16
-23z m2319 -39 c-8 -8 -9 -4 -5 13 4 13 8 18 11 10 2 -7 -1 -18 -6 -23z
m-2331 0 c1 -7 0 -21 -1 -31 -1 -10 6 -29 14 -43 14 -21 15 -24 1 -24 -8 0
-17 10 -19 23 -13 64 -15 87 -6 87 6 0 11 -6 11 -12z m1385 -11 l27 -24 -28
-38 -29 -38 -13 49 c-20 76 -6 93 43 51z m-1281 -27 c-5 -8 -11 -8 -17 -2 -6
6 -7 16 -3 22 5 8 11 8 17 2 6 -6 7 -16 3 -22z m2075 10 c0 -5 -2 -10 -4 -10
-3 0 -8 5 -11 10 -3 6 -1 10 4 10 6 0 11 -4 11 -10z m-1860 -40 c0 -5 -5 -10
-11 -10 -5 0 -7 5 -4 10 3 6 8 10 11 10 2 0 4 -4 4 -10z m1895 -10 c3 -5 1
-10 -4 -10 -6 0 -11 5 -11 10 0 6 2 10 4 10 3 0 8 -4 11 -10z m373 -41 c2 -13
10 -31 18 -40 12 -14 12 -18 1 -27 -11 -9 -16 -7 -24 11 -23 50 -31 75 -25 81
11 12 27 -1 30 -25z m-2578 -69 c0 -5 -2 -10 -4 -10 -3 0 -8 5 -11 10 -3 6 -1
10 4 10 6 0 11 -4 11 -10z m2352 -71 c10 -6 10 -11 1 -20 -9 -9 -16 -9 -27 1
-9 7 -14 15 -11 19 2 4 -3 20 -11 35 -23 46 -15 54 11 12 13 -21 29 -43 37
-47z m-1196 21 c90 -96 121 -155 75 -143 -10 3 -27 0 -38 -5 -15 -8 -26 -4
-56 24 -36 33 -37 36 -37 104 0 39 2 70 5 70 2 0 25 -23 51 -50z m459 3 c32
-36 31 -45 -2 -41 -23 2 -29 8 -31 36 -4 39 2 40 33 5z m845 -33 c0 -6 -10 -4
-23 7 -15 10 -22 24 -19 35 4 16 6 15 23 -6 11 -13 19 -29 19 -36z m-2403 -15
c-30 -16 -34 -9 -12 15 14 15 21 17 26 8 5 -7 -1 -16 -14 -23z m38 -63 c39 4
42 1 21 -27 -11 -15 -17 -17 -27 -8 -8 6 -25 13 -39 15 -18 2 -26 10 -29 28
-3 25 -3 25 18 6 14 -13 31 -17 56 -14z m2325 3 c0 -8 -12 -17 -27 -20 -16 -4
-36 -11 -46 -16 -10 -5 -23 -7 -28 -3 -16 9 10 24 42 24 15 0 32 7 39 15 16
19 20 19 20 0z m-2590 -105 c-37 -29 -55 -26 -24 4 8 9 23 16 32 16 13 0 11
-5 -8 -20z m-650 -10 c0 -5 -2 -10 -4 -10 -3 0 -8 5 -11 10 -3 6 -1 10 4 10 6
0 11 -4 11 -10z m-80 -19 c0 -20 57 -75 96 -93 26 -12 30 -23 14 -33 -5 -3
-10 -1 -10 4 0 16 -91 13 -140 -4 -23 -8 -44 -15 -46 -15 -2 0 -4 21 -4 48 0
73 23 103 83 111 4 1 7 -8 7 -18z m637 -93 c54 -53 64 -80 40 -112 -12 -17
-14 -17 -46 1 -25 14 -35 15 -38 5 -9 -25 -23 0 -23 43 0 24 -5 56 -10 70 -11
28 -6 45 13 45 6 0 35 -23 64 -52z m-433 -73 c12 -21 31 -39 50 -46 27 -10 34
-19 44 -62 6 -28 11 -52 9 -53 -1 -2 -28 7 -60 19 -45 17 -57 27 -57 44 0 43
-37 36 -53 -10 -5 -16 -47 3 -47 21 0 42 21 92 39 92 10 0 24 7 31 15 18 22
23 19 44 -20z m-249 -75 c3 -5 -1 -10 -9 -10 -8 0 -18 5 -21 10 -3 6 1 10 9
10 8 0 18 -4 21 -10z m2599 -22 c17 -25 21 -102 10 -231 l-7 -75 -36 -7 c-20
-3 -112 -29 -206 -56 -161 -47 -170 -48 -186 -32 -10 10 -19 29 -21 42 -3 21
7 27 145 76 165 60 264 104 289 128 13 13 14 24 6 59 -5 24 -13 47 -17 51 -5
4 -50 -20 -102 -55 -86 -58 -284 -156 -295 -145 -2 2 9 21 26 42 16 21 30 43
30 50 0 7 14 18 31 25 17 7 56 33 86 56 31 24 79 52 107 63 28 10 58 21 66 24
32 12 59 6 74 -15z m1562 -151 c-1 -53 -1 -53 -63 -100 -37 -28 -73 -47 -88
-47 -37 0 -75 -42 -75 -82 0 -19 -7 -43 -15 -55 -15 -22 -16 -22 -50 -5 -42
21 -57 60 -29 75 10 5 44 35 74 66 30 32 69 67 87 80 21 14 34 33 38 54 5 25
15 36 43 49 20 9 47 17 58 17 20 1 21 -4 20 -52z m56 -164 c10 -13 13 -35 10
-76 -4 -56 -5 -58 -50 -89 -26 -17 -59 -42 -74 -56 -20 -19 -29 -22 -40 -13
-7 7 -21 17 -31 24 -15 11 -13 15 30 47 44 32 49 40 58 93 14 79 60 113 97 70z
m-2926 -26 c2 -5 56 -154 60 -169 4 -10 -1 -18 -14 -22 -23 -8 -40 -42 -48
-99 -4 -23 -14 -50 -22 -59 -16 -20 -68 -26 -56 -7 4 7 -1 9 -12 7 -11 -2 -24
3 -30 11 -10 12 -15 13 -27 3 -13 -11 -15 -6 -19 36 -4 59 0 84 13 77 15 -10
10 5 -11 32 l-19 25 49 50 c28 28 50 57 50 64 0 17 5 17 31 4 17 -10 18 -8 9
15 -16 41 -13 48 17 40 16 -4 28 -7 29 -8z m-644 -102 c-5 -28 -4 -27 -26 -19
-17 6 -21 31 -10 59 10 26 42 -9 36 -40z m2678 11 c19 -17 39 -34 43 -37 5 -4
4 -25 -2 -47 -10 -36 -18 -44 -79 -75 -37 -19 -96 -51 -131 -71 -35 -20 -71
-35 -80 -34 -8 2 -23 18 -34 35 l-19 32 78 95 c86 106 138 149 169 140 11 -3
36 -20 55 -38z m-662 -15 l22 -30 -83 -31 c-45 -18 -106 -36 -135 -40 -29 -4
-58 -12 -64 -18 -8 -8 -53 -12 -129 -12 l-117 0 17 48 c9 26 17 49 18 50 1 3
391 58 434 61 8 0 25 -12 37 -28z m2642 -208 c101 -60 190 -174 190 -245 0
-57 -45 -113 -120 -150 -19 -9 -84 -40 -145 -68 -181 -84 -208 -116 -185 -217
7 -33 22 -66 36 -80 28 -28 49 -25 147 24 168 84 311 84 350 0 21 -44 22 -116
2 -165 -28 -68 -97 -158 -146 -191 -26 -18 -57 -44 -70 -57 -12 -13 -37 -28
-55 -34 -31 -10 -43 -7 -122 29 -77 36 -98 41 -160 41 -70 0 -71 0 -104 -39
-18 -21 -55 -76 -83 -122 -49 -80 -50 -86 -56 -178 -6 -108 -27 -182 -64 -226
l-24 -30 -28 35 c-57 72 -129 143 -171 167 -40 24 -50 25 -124 20 -73 -6 -79
-5 -73 11 33 82 -1 199 -76 254 -14 11 -64 26 -114 34 -106 19 -142 35 -151
70 -10 39 1 134 24 200 28 84 51 184 58 252 6 51 10 62 34 76 39 22 42 21 35
-18 -10 -51 17 -73 102 -81 37 -4 96 -18 130 -33 53 -22 61 -29 49 -40 -11
-11 -28 -9 -104 13 -51 14 -107 34 -125 45 -42 26 -51 25 -66 -6 -14 -31 -6
-64 15 -64 16 0 19 -16 4 -25 -5 -3 -10 -18 -10 -32 0 -15 -7 -34 -15 -43 -20
-22 -10 -49 22 -61 25 -9 63 3 63 21 0 6 20 10 44 10 24 0 60 7 79 15 56 23
67 20 67 -20 0 -47 -43 -75 -116 -75 -38 0 -53 -4 -58 -16 -11 -27 -7 -62 9
-78 8 -8 15 -21 15 -29 0 -25 25 -37 78 -39 39 -2 53 -7 58 -20 3 -9 14 -20
25 -23 12 -4 19 -15 19 -30 0 -32 41 -59 76 -51 17 5 32 2 43 -7 23 -20 51
-28 51 -15 0 6 9 3 19 -6 14 -13 28 -16 50 -11 41 9 45 19 24 51 -10 15 -25
64 -34 108 l-17 81 -1 -61 c-1 -57 -21 -108 -34 -87 -3 5 -9 43 -13 84 l-6 74
33 13 c31 11 35 10 51 -10 33 -42 68 -127 66 -157 -4 -57 54 -91 94 -54 25 23
23 32 -12 45 -21 7 -38 24 -52 51 -11 23 -38 64 -59 93 -22 28 -39 54 -39 57
0 4 12 7 26 7 51 0 109 -46 119 -94 15 -70 57 -96 97 -59 32 29 18 83 -23 83
-21 0 -70 39 -50 40 8 0 39 -14 69 -31 51 -29 55 -29 73 -13 13 12 19 29 18
58 -1 23 0 47 2 55 2 8 -17 26 -45 43 -48 28 -53 29 -128 23 -68 -6 -78 -5
-78 9 0 11 9 16 32 16 17 0 55 8 84 17 l53 16 21 -25 c21 -28 67 -45 82 -30
13 13 -11 102 -27 102 -7 0 -18 -7 -25 -15 -7 -9 -29 -15 -52 -15 -21 0 -55
-7 -75 -15 -19 -8 -48 -15 -64 -15 -19 0 -29 5 -29 15 0 9 9 15 25 15 14 0 39
10 55 22 23 17 33 19 42 10 7 -7 15 -12 19 -12 6 0 39 56 39 67 0 1 -22 3 -49
3 -52 0 -74 -13 -86 -50 -7 -20 -21 -25 -49 -14 -40 15 5 78 79 108 30 13 32
17 26 48 -6 30 -11 33 -43 35 -49 3 -66 -18 -50 -60 11 -28 9 -34 -14 -58
l-26 -28 -34 22 c-19 12 -34 29 -34 37 1 26 37 94 68 127 38 40 37 94 -2 145
-34 45 -33 67 4 113 17 21 30 46 30 56 0 31 33 22 66 -18 39 -46 53 -41 102
36 33 53 43 62 103 85 83 33 159 81 159 100 0 8 -11 23 -25 34 -42 33 -23 79
28 67 14 -4 28 -2 31 4 8 12 55 -5 126 -46z m-4635 26 c-4 -5 -20 -9 -38 -9
-33 0 -28 15 8 22 24 5 37 0 30 -13z m1723 -34 c3 -3 -35 -83 -43 -93 -2 -2
-285 54 -317 64 -10 3 -18 11 -18 19 0 11 5 11 29 -1 31 -16 74 -7 83 18 5 11
30 12 134 5 71 -5 130 -10 132 -12z m545 1 c54 -1 52 2 79 -136 12 -58 16 -65
39 -68 16 -2 56 14 110 45 90 52 140 76 145 71 2 -2 -1 -33 -6 -68 -5 -36 -10
-89 -10 -119 0 -45 -4 -56 -25 -73 -39 -30 -51 -59 -31 -73 14 -11 9 -20 -45
-81 -33 -38 -66 -69 -73 -69 -7 0 -26 12 -44 26 l-31 27 43 122 c34 93 41 123
31 127 -37 14 -49 -3 -95 -126 -42 -115 -48 -125 -83 -142 l-37 -19 0 155 0
156 -37 -3 c-30 -2 -38 -8 -43 -28 l-6 -25 -8 23 c-4 12 -14 22 -23 22 -12 0
-14 -11 -11 -55 1 -30 0 -55 -3 -55 -8 0 -19 53 -19 91 0 37 -11 42 -54 24
-41 -17 -42 -24 -25 -122 9 -50 8 -67 -2 -79 -11 -14 -10 -18 4 -29 24 -18 43
-133 25 -151 -7 -7 -18 -10 -25 -6 -6 4 -32 101 -57 215 l-47 208 20 25 c23
29 18 54 -10 54 -33 0 -21 19 34 54 79 50 206 97 242 90 17 -4 51 -7 78 -8z
m-2088 -46 c13 -21 -377 -182 -448 -184 -29 -1 -43 -7 -51 -21 -18 -33 -51
-50 -40 -20 4 8 1 22 -6 30 -15 18 -87 17 -106 -2 -10 -10 -19 -11 -33 -4 -38
21 -71 -12 -51 -50 6 -10 20 -19 32 -19 17 0 13 -5 -17 -20 -22 -11 -44 -20
-51 -20 -6 0 -17 -7 -24 -15 -10 -12 -9 -20 3 -39 9 -13 13 -33 10 -45 -3 -12
0 -27 6 -35 9 -11 5 -20 -19 -45 -27 -26 -29 -33 -20 -52 8 -14 18 -19 31 -16
21 6 22 5 13 -17 -5 -12 -11 -13 -24 -6 -49 26 -69 -34 -24 -69 33 -26 50 -26
66 -1 15 24 41 26 58 5 7 -8 19 -15 26 -15 8 0 14 -7 14 -15 0 -8 -9 -15 -19
-15 -10 0 -21 7 -25 15 -7 19 -55 20 -62 1 -3 -8 -13 -12 -25 -9 -39 11 -81
-62 -48 -82 18 -12 57 4 64 25 5 16 12 19 33 14 15 -4 36 -15 48 -26 30 -27
92 -36 100 -14 11 30 24 16 24 -26 0 -48 22 -78 56 -78 34 0 59 42 44 70 -17
31 2 46 25 20 24 -27 47 -25 75 5 13 14 29 25 37 25 7 0 22 9 32 19 23 23 37
26 71 15 l25 -8 -25 -6 c-37 -9 -39 -51 -4 -79 15 -11 35 -21 45 -21 31 0 84
-30 95 -53 6 -15 16 -21 32 -19 19 3 168 -76 260 -136 7 -5 -15 -8 -50 -7 -58
2 -70 6 -158 62 -52 33 -113 69 -135 81 -22 11 -46 30 -53 42 -11 17 -19 20
-50 14 -30 -5 -35 -4 -24 7 18 19 15 37 -10 50 -17 9 -24 9 -33 -5 -7 -9 -26
-16 -43 -16 -25 0 -33 -5 -38 -24 -3 -14 -3 -30 1 -35 12 -21 -6 -33 -25 -16
-20 19 -63 7 -74 -20 -5 -14 -9 -15 -21 -5 -8 7 -22 9 -31 6 -11 -4 -22 1 -31
14 -17 25 -68 27 -77 4 -10 -26 20 -64 51 -64 37 0 63 -27 63 -66 0 -18 5 -36
10 -39 6 -3 10 -20 10 -36 0 -17 -4 -28 -10 -24 -5 3 -19 -9 -30 -27 -13 -22
-16 -34 -8 -39 12 -7 -82 -147 -127 -189 l-23 -22 -52 28 c-79 43 -100 74
-100 145 0 45 3 59 15 59 19 0 48 44 43 67 -3 14 -9 11 -27 -17 l-22 -35 6 31
c8 39 -8 80 -34 89 -24 7 -76 -13 -135 -54 -71 -49 -150 -39 -236 29 -36 29
-70 83 -70 113 0 8 14 32 31 53 42 53 36 94 -25 183 -25 36 -46 73 -46 81 0 8
13 22 29 32 20 11 41 40 63 86 27 57 41 74 75 93 35 19 44 21 57 9 9 -7 20
-10 24 -6 4 4 -1 13 -11 20 -9 7 -17 23 -17 34 0 13 -12 29 -27 39 -16 9 -36
23 -46 32 -16 14 -16 16 5 38 25 27 41 29 62 7 12 -11 13 -20 6 -34 -17 -32
-11 -40 29 -40 33 0 44 6 69 38 27 33 33 36 51 25 34 -21 66 -15 115 23 38 29
47 32 52 20 3 -9 10 -16 15 -16 5 0 4 12 -2 27 -9 23 -6 30 18 50 49 41 96 60
177 72 79 11 106 8 73 -10 -23 -13 -22 -32 4 -55 33 -30 179 -22 179 11 0 18
-39 45 -66 45 -15 0 -24 8 -28 26 -9 35 -2 40 37 26 43 -16 67 -15 86 2 9 7
44 17 79 20 57 6 62 5 62 -12 0 -11 6 -22 14 -25 15 -6 62 16 86 39 16 16 86
19 95 4z m-1622 -45 c63 -35 73 -49 58 -81 -6 -14 -11 -45 -11 -69 0 -25 -5
-76 -12 -114 -10 -59 -9 -72 4 -92 13 -22 13 -26 -2 -41 -9 -10 -24 -18 -33
-18 -8 0 -22 -7 -31 -15 -13 -14 -16 -13 -28 3 -22 30 -36 34 -68 17 -29 -15
-32 -15 -60 5 -16 12 -33 36 -39 55 -5 18 -21 50 -36 69 l-27 35 24 91 c23 90
23 90 54 90 24 0 44 11 81 45 26 24 55 44 64 45 9 0 37 -11 62 -25z m2934 -30
c65 -14 128 -27 141 -30 l22 -5 -25 -50 -25 -49 -117 40 c-65 22 -121 44 -124
47 -6 7 0 72 6 72 2 0 57 -11 122 -25z m-1297 -20 c0 -9 -20 -28 -46 -44 -44
-29 -45 -49 -1 -35 37 11 12 -7 -86 -61 l-92 -52 -21 31 c-12 17 -21 36 -21
41 0 12 225 133 250 134 9 1 17 -6 17 -14z m1215 -148 c30 -16 30 -16 5 -17
-14 0 -34 -3 -45 -6 -15 -4 -36 10 -80 50 l-60 56 75 -33 c41 -19 89 -41 105
-50z m-1521 -16 c-7 -32 -7 -32 -19 -9 -10 19 -9 25 3 35 21 17 23 12 16 -26z
m1965 -68 c11 -39 21 -73 21 -76 0 -2 -15 1 -34 7 -43 13 -58 36 -47 73 5 15
12 41 16 57 8 39 18 25 44 -61z m-2255 17 c29 -11 43 -30 22 -30 -9 0 -16 4
-16 10 0 5 -11 12 -25 16 -19 5 -25 12 -24 33 0 25 0 26 9 3 5 -12 20 -26 34
-32z m3583 42 c10 -6 35 -113 28 -120 -1 -1 -14 3 -28 9 -20 9 -28 22 -33 55
-8 56 3 75 33 56z m-2992 -22 c3 -11 15 -20 26 -20 10 0 19 -3 19 -7 0 -5 -46
-43 -102 -86 l-101 -78 -13 27 c-13 24 -12 28 3 40 15 10 16 16 7 32 -10 15
-9 21 6 30 10 6 27 8 39 5 11 -3 33 -2 48 2 21 5 24 8 12 15 -7 5 -22 7 -31 4
-29 -9 -21 3 19 31 45 30 60 31 68 5z m-395 -9 c0 -25 25 -45 50 -38 29 8 25
-6 -9 -26 -27 -16 -29 -16 -46 3 -10 11 -24 20 -31 20 -8 0 -10 8 -6 23 9 36
42 51 42 18z m-260 -19 c0 -5 -11 -19 -25 -32 -14 -13 -25 -32 -25 -42 0 -10
-4 -18 -10 -18 -17 0 -11 22 16 62 25 36 44 49 44 30z m783 -77 l28 -25 -36
-45 -37 -45 -30 22 c-26 18 -34 19 -50 9 -11 -7 -23 -9 -26 -6 -7 7 103 115
116 115 4 0 20 -12 35 -25z m1308 -17 c-32 -52 -44 -55 -85 -22 -33 26 -35 30
-19 42 9 6 41 12 71 12 l54 0 -21 -32z m539 -48 c0 -44 -2 -80 -4 -80 -3 0
-16 4 -30 10 -24 9 -26 15 -26 64 0 45 4 58 22 70 12 9 26 16 30 16 5 0 8 -36
8 -80z m-2556 51 c16 -17 15 -18 -14 -17 -21 1 -30 6 -30 19 0 22 23 22 44 -2z
m3122 8 c4 -7 -2 -19 -14 -28 -11 -9 -24 -28 -27 -43 -6 -22 -101 -118 -118
-118 -3 0 -7 15 -10 33 -5 29 1 38 61 100 64 65 93 80 108 56z m-3061 -39 c3
-5 2 -10 -4 -10 -5 0 -13 5 -16 10 -3 6 -2 10 4 10 5 0 13 -4 16 -10z m1678
-20 c-9 -16 -20 -30 -24 -30 -7 0 -22 31 -17 35 11 8 44 24 51 25 5 0 0 -13
-10 -30z m461 -6 c11 -28 6 -39 -9 -20 -8 11 -15 23 -15 28 0 14 18 9 24 -8z
m-330 -49 c-17 -25 -17 -28 -1 -39 15 -12 15 -14 0 -28 -14 -15 -19 -15 -52 0
-20 9 -38 17 -40 19 -2 1 16 25 40 53 37 44 45 49 57 36 12 -12 12 -17 -4 -41z
m-1029 22 c14 -21 12 -28 -17 -90 -17 -37 -35 -67 -38 -67 -3 0 -16 13 -28 30
l-22 30 30 60 c33 64 51 73 75 37z m2602 -107 c29 0 32 -3 43 -51 14 -57 8
-145 -11 -181 -13 -23 -14 -23 -19 12 -3 19 -9 35 -15 35 -5 0 -88 -22 -183
-49 -95 -27 -174 -47 -176 -45 -2 2 -6 17 -8 33 -3 29 -2 30 142 86 159 62
210 86 210 100 0 11 -108 100 -121 100 -13 0 -11 34 2 47 8 8 24 -3 58 -38 37
-38 54 -49 78 -49z m-3067 87 c0 -2 -20 -18 -45 -36 -42 -30 -45 -31 -45 -11
0 11 6 22 13 24 10 3 67 22 75 25 1 1 2 0 2 -2z m185 -73 c17 -27 18 -24 -34
-103 -7 -12 -15 -10 -44 8 -19 11 -40 21 -47 21 -7 0 -21 8 -30 18 -16 16 -14
20 33 63 48 44 52 45 78 32 15 -7 34 -25 44 -39z m1584 27 c39 -54 22 -68 -29
-25 -24 21 -28 29 -19 40 17 20 25 18 48 -15z m-1151 1 c7 -5 10 -16 6 -25 -8
-21 -20 -22 -28 -1 -13 33 -4 42 22 26z m2205 -23 c21 -37 16 -45 -45 -79 -38
-21 -41 -21 -25 -3 21 24 21 29 2 37 -8 3 -28 -6 -44 -19 -23 -20 -31 -22 -40
-12 -8 11 4 24 56 60 37 26 70 47 73 47 3 0 13 -14 23 -31z m1136 -28 l-12
-50 -29 15 c-21 11 -28 22 -28 42 0 24 5 30 38 38 20 6 39 9 41 8 2 -2 -3 -25
-10 -53z m-82 29 c8 -45 -36 -48 -56 -4 -11 24 -10 25 21 22 20 -2 34 -9 35
-18z m-2615 -35 c-30 -49 -37 -53 -46 -29 -10 27 3 52 32 63 42 15 43 14 14
-34z m2554 -10 c-6 -19 -35 -16 -46 5 -9 16 -8 25 1 36 11 14 15 13 31 -8 9
-13 16 -27 14 -33z m-4026 10 c7 -9 8 -15 2 -15 -5 0 -12 7 -16 15 -3 8 -4 15
-2 15 2 0 9 -7 16 -15z m928 -126 c-3 -111 -3 -113 -19 -84 -13 25 -14 44 -6
123 14 126 28 103 25 -39z m3049 103 c6 -11 8 -25 3 -32 -6 -10 -11 -8 -19 8
-21 39 -7 60 16 24z m-2413 -8 c3 -9 6 -16 6 -17 0 -1 -11 -2 -25 -2 -28 0
-31 5 -13 23 16 16 25 15 32 -4z m293 -26 c37 -26 39 -31 19 -47 -10 -9 -16
-8 -26 4 -7 8 -9 15 -4 15 4 0 -3 11 -16 25 -29 31 -17 32 27 3z m-1083 -25
c15 -36 15 -42 -2 -97 l-18 -59 -18 28 c-17 26 -17 34 -6 97 7 37 16 68 20 68
4 0 14 -17 24 -37z m3059 -30 c31 -3 59 -8 62 -12 7 -13 -136 -12 -151 0 -22
18 -17 32 9 24 12 -4 48 -9 80 -12z m-3299 -22 c26 -27 27 -32 16 -65 -6 -20
-15 -36 -19 -36 -4 0 -22 15 -40 34 l-33 34 18 31 c10 17 21 31 24 31 4 0 19
-13 34 -29z m2205 -22 c17 -6 31 -14 31 -18 0 -3 -16 -15 -36 -26 -35 -19 -36
-19 -50 0 -12 16 -12 21 3 37 9 10 17 18 18 18 1 0 16 -5 34 -11z m1185 2 c3
-5 -27 -20 -67 -34 -61 -22 -74 -24 -86 -12 -28 28 -6 44 66 48 37 2 71 4 75
5 4 1 9 -2 12 -7z m-1046 -87 c12 -8 22 -19 22 -23 0 -5 -28 -16 -62 -24 -58
-15 -64 -15 -75 0 -19 25 -16 30 30 46 55 20 58 20 85 1z m-930 -41 c2 -13 1
-23 -2 -23 -12 0 -56 24 -56 30 0 30 54 23 58 -7z m2433 17 c38 0 39 -1 39
-35 0 -33 -2 -35 -32 -35 -45 0 -134 35 -130 52 6 21 25 29 56 23 16 -3 46 -5
67 -5z m-1131 -31 c-19 -16 -55 -36 -80 -43 -41 -12 -45 -11 -61 8 -17 21 -17
21 69 43 112 28 113 28 72 -8z m-2510 -90 l0 -44 -30 31 c-28 27 -30 35 -24
71 l6 42 24 -29 c17 -20 24 -40 24 -71z m3200 80 c0 -6 -16 -27 -35 -46 -25
-25 -39 -33 -46 -26 -15 15 5 49 39 67 33 18 42 19 42 5z m341 -19 c13 -10 21
-19 17 -20 -14 0 -58 23 -58 32 0 14 16 9 41 -12z m-2406 -22 c65 -25 61 -44
-8 -34 -28 4 -53 16 -67 31 -23 25 -23 25 -3 25 12 0 47 -10 78 -22z m1193
-13 c19 -4 30 -11 25 -15 -7 -7 -271 -50 -307 -50 -14 0 -31 29 -21 38 2 3 58
17 122 32 95 21 121 24 133 14 8 -6 30 -15 48 -19z m916 6 c14 -15 15 -24 6
-40 -6 -12 -20 -21 -31 -21 -29 0 -59 -18 -59 -36 0 -8 -4 -12 -10 -9 -18 11
-10 36 27 81 21 24 40 44 44 44 3 0 14 -9 23 -19z m-4024 -2 c28 -9 36 -16 33
-29 -6 -22 25 -53 48 -47 10 3 23 -1 30 -9 29 -35 90 -4 69 35 -6 12 -7 21 -3
21 4 0 77 -28 161 -61 161 -66 162 -66 146 -126 l-6 -21 -51 18 c-109 38 -114
40 -94 51 26 15 21 48 -8 55 -14 3 -31 4 -39 1 -8 -3 -20 1 -26 9 -19 22 -32
17 -19 -7 19 -36 -7 -38 -102 -8 -49 16 -98 29 -109 29 -11 0 -26 12 -35 29
-8 16 -24 32 -35 36 -20 6 -25 16 -13 28 8 9 9 9 53 -4z m120 -9 c0 -5 -4 -10
-9 -10 -6 0 -13 5 -16 10 -3 6 1 10 9 10 9 0 16 -4 16 -10z m-1775 -19 c53 -9
61 -15 70 -48 11 -44 34 -63 77 -63 50 0 50 -19 -2 -55 l-39 -27 -28 21 c-62
48 -136 91 -157 91 -22 0 -69 57 -60 72 3 4 16 8 29 8 13 0 27 5 30 11 4 6 14
7 24 3 9 -4 34 -10 56 -13z m5729 -40 c-15 -60 -39 -82 -39 -33 1 43 14 72 30
65 10 -3 13 -13 9 -32z m51 -67 c-10 -19 -22 -34 -26 -34 -28 0 -19 116 9 122
29 6 39 -47 17 -88z m-719 64 c-9 -12 -16 -31 -16 -42 0 -19 0 -19 -21 0 -17
15 -23 16 -41 5 -11 -7 -23 -10 -26 -7 -3 3 0 6 6 6 7 0 12 9 12 20 0 13 9 22
28 26 15 3 32 7 37 9 30 10 36 5 21 -17z m-4476 -8 c-14 -26 -53 -45 -75 -36
-22 8 -11 23 28 40 48 21 60 20 47 -4z m-1054 -71 l26 -42 84 7 c84 7 84 7 84
-17 0 -13 15 -44 34 -68 36 -48 52 -107 29 -116 -7 -3 -13 -9 -13 -13 0 -10
69 3 97 18 45 25 127 7 138 -29 3 -10 20 -30 38 -44 18 -14 37 -29 43 -34 6
-5 15 -30 18 -56 6 -37 4 -51 -10 -66 -17 -18 -16 -20 7 -45 13 -14 49 -37 79
-51 90 -40 125 -90 86 -122 -8 -7 -26 -36 -40 -66 -31 -67 -53 -81 -173 -116
-52 -15 -98 -30 -101 -34 -3 -3 11 -36 31 -74 40 -74 46 -105 21 -115 -31 -12
-54 -6 -54 13 0 28 -43 58 -101 70 -57 13 -89 27 -106 50 -11 14 -14 14 -23 1
-14 -21 -12 -39 9 -86 14 -31 16 -45 8 -53 -18 -18 -38 -13 -108 29 -75 45
-125 51 -198 26 -48 -17 -133 -74 -214 -144 l-59 -50 -66 30 c-93 42 -117 61
-142 114 -29 59 -23 117 19 182 33 52 39 88 19 115 -7 9 -62 43 -123 75 -86
45 -112 64 -120 86 -14 40 19 95 73 121 45 21 53 44 27 79 -24 32 -18 69 21
120 41 51 69 63 114 48 29 -10 31 -9 44 22 16 38 73 77 115 78 38 1 81 -27 81
-52 0 -20 17 -36 27 -26 3 3 0 12 -6 20 -11 13 -8 13 17 4 55 -21 66 -7 59 78
-5 73 -5 76 26 111 36 41 78 62 124 63 28 0 37 -7 59 -41z m4134 32 c0 -10
-69 -25 -77 -17 -7 7 35 24 60 25 9 1 17 -3 17 -8z m1175 -11 c3 -6 -4 -10
-17 -10 -13 0 -52 -7 -88 -14 -39 -9 -69 -10 -74 -5 -16 15 -76 11 -76 -5 0
-8 6 -17 13 -19 6 -3 -20 -6 -60 -6 -75 -1 -90 6 -70 32 9 12 45 18 157 25
208 13 208 13 215 2z m225 -84 c-18 -18 -51 32 -37 55 10 16 13 15 30 -13 13
-23 15 -34 7 -42z m1395 -56 c64 -33 124 -60 133 -60 11 0 7 -9 -16 -33 -18
-18 -32 -38 -32 -45 0 -16 -34 -32 -69 -32 -29 0 -31 -3 -51 -69 -11 -38 -27
-74 -35 -81 -8 -7 -15 -16 -15 -21 0 -16 32 -39 55 -39 38 0 57 -27 50 -71 -5
-28 0 -58 19 -113 28 -80 33 -145 14 -164 -18 -18 -46 -15 -128 13 -40 14 -91
25 -112 25 -21 0 -38 2 -38 5 0 3 16 20 37 38 28 27 36 41 35 67 -1 33 -45
129 -142 308 -67 123 -68 167 -9 242 88 111 137 116 304 30z m-3548 9 c113
-40 200 -84 212 -107 6 -11 9 -46 8 -79 -2 -55 -5 -63 -39 -94 -24 -23 -39
-48 -44 -74 -4 -22 -13 -46 -21 -53 -7 -7 -13 -20 -13 -28 0 -10 -5 -9 -20 6
-11 11 -20 25 -20 30 0 6 -4 10 -10 10 -5 0 -16 -21 -23 -47 -13 -45 -14 -46
-21 -20 -3 15 -11 25 -16 22 -6 -4 -25 2 -43 13 -17 10 -62 31 -98 46 -60 25
-69 33 -111 97 -52 79 -52 86 -1 201 22 50 31 59 62 68 20 5 45 16 56 24 28
22 42 20 142 -15z m-1765 4 c12 -11 18 -30 18 -62 0 -79 -9 -81 -89 -22 -39
29 -71 57 -71 62 0 15 54 38 89 39 19 0 43 -7 53 -17z m4043 3 c17 -12 18 -17
6 -39 -13 -24 -11 -29 26 -71 22 -25 47 -67 56 -93 18 -54 25 -42 -65 -108
-26 -19 -48 -35 -50 -35 -2 0 -3 60 -3 133 0 72 -4 153 -8 180 -7 51 2 59 38
33z m-1521 -48 c-16 -29 -41 -51 -73 -64 -19 -8 -36 -12 -39 -9 -10 9 48 74
70 78 43 8 49 7 42 -5z m-1534 -28 c0 -5 -7 -7 -15 -4 -8 4 -15 8 -15 10 0 2
7 4 15 4 8 0 15 -4 15 -10z m-1460 -141 c0 -50 -15 -59 -104 -59 -77 0 -85 -2
-111 -27 -15 -16 -40 -54 -57 -86 -25 -51 -32 -57 -51 -51 -62 19 -147 76
-147 99 0 8 8 29 18 48 l17 34 119 7 c148 8 234 22 272 45 33 21 44 18 44 -10z
m1056 -65 c7 -40 -4 -54 -43 -54 -21 0 -23 5 -23 45 0 43 1 45 30 45 26 0 30
-4 36 -36z m1969 19 c18 -24 -39 -102 -75 -102 -52 -1 -53 13 -5 67 51 56 61
61 80 35z m118 -31 c-52 -90 -56 -94 -81 -85 -23 9 -23 9 22 71 30 41 53 62
66 62 19 0 19 -2 -7 -48z m-309 7 l-31 -30 -56 16 c-32 9 -57 18 -57 21 0 12
51 23 110 23 l65 1 -31 -31z m-2451 -4 c17 -9 62 -39 99 -67 57 -44 85 -77
170 -202 92 -135 100 -150 84 -162 -15 -11 -31 3 -138 122 -66 74 -129 139
-140 145 -17 9 -24 6 -49 -23 -33 -38 -45 -68 -32 -77 57 -38 222 -174 227
-187 4 -9 9 -14 13 -10 9 8 63 -44 63 -61 0 -7 -3 -13 -7 -13 -3 0 -49 33
-102 72 -132 100 -262 188 -277 188 -7 0 -19 -20 -27 -45 l-16 -44 48 -29 c44
-28 47 -32 43 -65 l-4 -36 -57 26 c-89 41 -139 58 -147 50 -4 -3 -9 -29 -12
-56 l-4 -49 50 -16 c28 -10 53 -24 56 -33 5 -12 10 -13 18 -5 8 8 49 -3 151
-39 77 -27 143 -51 145 -54 3 -2 -7 -9 -21 -16 -37 -17 -113 -4 -120 20 -5 21
-54 57 -64 47 -3 -3 -1 -18 6 -32 11 -25 10 -25 -16 -20 -27 6 -228 36 -238
36 -8 0 -5 -64 4 -79 10 -15 64 -25 192 -36 104 -9 116 -14 98 -44 -13 -20
-22 -21 -146 -21 -72 0 -138 -3 -147 -6 -10 -4 -16 -18 -16 -35 0 -16 -3 -29
-6 -29 -19 0 -93 64 -104 90 -20 49 -8 124 29 176 17 25 31 50 31 57 0 7 -15
28 -34 46 -52 51 -53 73 -9 158 50 99 61 107 146 113 l72 5 11 90 c6 50 17
103 25 118 25 55 82 67 152 32z m2874 11 c-3 -8 -11 -33 -18 -55 -13 -44 -33
-50 -35 -10 -2 33 23 79 42 79 10 0 14 -6 11 -14z m-2357 -21 c0 -8 -7 -15
-16 -15 -14 0 -14 3 -4 15 7 8 14 15 16 15 2 0 4 -7 4 -15z m5440 -170 c47
-31 53 -40 55 -73 1 -20 8 -52 16 -70 14 -33 13 -34 -19 -63 -18 -16 -36 -29
-40 -29 -5 0 -34 29 -65 64 -37 41 -72 70 -100 82 -39 16 -44 22 -42 46 3 40
23 58 64 59 29 0 49 5 77 18 1 1 26 -15 54 -34z m-5555 -22 c3 -21 14 -55 24
-75 l18 -36 -24 -7 c-30 -7 -29 -9 -69 62 l-32 57 32 17 c44 23 44 23 51 -18z
m2239 21 c13 -5 13 -9 -1 -40 -9 -19 -19 -34 -23 -34 -11 0 -41 60 -35 70 7
11 35 13 59 4z m152 -35 c10 -17 -28 -110 -51 -125 -22 -14 -47 -10 -73 11 -2
2 11 32 29 67 29 60 33 64 60 60 16 -2 32 -8 35 -13z m603 -165 c63 -56 66
-125 10 -222 l-30 -52 -34 33 c-23 22 -37 49 -45 81 -12 56 -25 82 -52 113
-20 21 -20 21 2 28 12 4 26 18 32 31 17 38 68 33 117 -12z m2173 1 c9 -4 12
-18 10 -46 -4 -38 -1 -43 57 -99 35 -34 61 -67 61 -79 0 -11 5 -23 11 -27 19
-12 39 21 46 74 3 29 10 55 15 58 16 10 57 -25 78 -66 31 -60 77 -107 118
-121 51 -17 190 -13 295 9 l89 18 42 -60 c61 -86 66 -98 66 -159 0 -63 -26
-110 -79 -142 -63 -38 -93 -70 -93 -98 0 -16 26 -67 66 -129 56 -85 66 -108
64 -138 -3 -30 -9 -38 -47 -57 -34 -17 -54 -21 -87 -16 l-44 6 0 -44 c0 -56
-19 -83 -77 -109 -60 -26 -89 -25 -119 5 -30 30 -29 30 -61 5 -18 -14 -41 -20
-78 -20 -47 0 -56 4 -79 31 -21 25 -25 38 -20 64 3 19 1 35 -5 39 -7 4 -11 -1
-11 -13 0 -19 -1 -19 -24 4 -35 35 -54 23 -87 -51 -36 -80 -66 -98 -152 -92
-71 5 -100 30 -90 78 7 37 -19 62 -97 94 -38 15 -53 27 -50 37 3 8 4 47 2 87
-2 82 7 109 40 114 21 3 20 5 -11 21 -19 9 -47 17 -63 17 -33 0 -33 -2 -7 80
11 36 27 97 34 137 17 83 6 130 -43 191 -67 85 -72 95 -72 153 0 50 3 59 26
74 42 27 92 29 187 6 49 -12 95 -21 103 -21 11 0 14 16 14 69 0 106 19 136 72
116z m-5478 -117 c48 -29 87 -56 87 -60 -1 -5 -1 -17 -1 -28 0 -18 -8 -16 -89
24 -84 43 -89 47 -93 81 -2 19 -1 35 3 35 3 0 45 -24 93 -52z m2069 -3 c-1 -5
-11 -12 -22 -17 -17 -6 -21 -3 -21 13 0 15 5 20 23 17 12 -2 21 -7 20 -13z
m2309 -84 l49 -28 -29 -12 c-16 -7 -45 -28 -63 -47 -31 -32 -34 -41 -34 -93 0
-35 -6 -65 -14 -75 -19 -22 -3 -38 52 -52 l42 -10 -55 -30 c-30 -16 -56 -37
-58 -47 -7 -37 69 -93 152 -112 32 -7 51 -17 51 -26 0 -11 -18 -13 -96 -10
-122 4 -143 -5 -136 -59 4 -35 2 -39 -29 -53 -18 -9 -41 -31 -50 -49 -9 -18
-38 -69 -64 -113 -46 -77 -48 -83 -53 -175 -9 -183 -72 -280 -181 -280 -40 0
-64 8 -124 42 l-74 43 6 89 c8 108 23 182 43 217 15 25 22 27 114 33 171 11
269 45 238 82 -5 6 -20 15 -33 18 -22 5 -46 42 -46 70 0 8 8 16 18 20 9 3 23
9 30 12 7 3 12 -2 12 -13 0 -17 33 -63 46 -63 3 0 18 7 34 15 52 27 37 95 -21
95 -15 0 -32 7 -39 15 -24 29 -1 27 54 -4 31 -17 62 -31 70 -31 23 0 34 29 34
90 l0 55 -48 27 c-46 26 -54 27 -131 21 -63 -5 -81 -3 -78 6 3 7 25 14 50 16
25 1 55 8 67 14 33 18 65 13 91 -14 22 -24 65 -34 75 -17 6 10 -12 83 -23 95
-4 4 -19 -2 -33 -13 -21 -16 -78 -29 -78 -17 0 2 9 21 19 43 20 41 18 59 -5
50 -9 -4 -18 4 -25 21 -13 34 -8 37 36 22 49 -18 63 -8 109 85 46 93 55 145
32 177 -9 13 -16 34 -16 47 0 21 2 20 32 -13 17 -20 53 -49 80 -64z m-2283 -9
c1 -15 -8 -26 -24 -34 -30 -14 -31 -13 -38 34 -5 33 -3 38 21 46 29 10 40 -2
41 -46z m621 13 c-13 -16 -40 -20 -40 -7 0 14 12 22 33 22 16 0 17 -3 7 -15z
m-2570 -26 c0 -10 -4 -19 -10 -19 -5 0 -10 12 -10 26 0 14 4 23 10 19 6 -3 10
-15 10 -26z m1789 -16 c6 -16 10 -46 10 -68 -1 -76 1 -89 16 -111 19 -29 19
-44 1 -44 -10 0 -21 28 -35 88 -33 146 -35 162 -18 162 8 0 20 -12 26 -27z
m-180 -51 c1 -7 -3 -10 -9 -7 -5 3 -10 21 -9 38 1 31 1 31 9 7 4 -14 8 -31 9
-38z m101 -61 c16 -54 30 -101 30 -105 0 -4 -10 -6 -22 -4 -19 2 -24 11 -29
53 -10 71 -17 155 -13 155 2 0 17 -44 34 -99z m238 62 c-4 -32 -38 -46 -38
-16 0 20 18 43 33 43 4 0 7 -12 5 -27z m-846 -5 c-6 -6 -15 -8 -19 -4 -4 4 -1
11 7 16 19 12 27 3 12 -12z m948 -30 c0 -18 -25 -36 -36 -25 -3 3 -3 20 1 37
6 25 9 29 21 19 8 -6 14 -20 14 -31z m560 -38 l-12 -22 -16 23 c-14 21 -14 23
9 42 24 19 24 19 27 -1 2 -12 -2 -31 -8 -42z m-240 -5 c-11 -14 -14 -12 -26
11 -19 35 -7 51 19 26 17 -18 18 -23 7 -37z m432 38 c12 -11 18 -30 18 -60 0
-23 -3 -43 -7 -43 -5 1 -28 19 -52 41 -43 38 -43 40 -26 59 22 24 43 25 67 3z
m-652 -64 c0 -14 -11 -36 -25 -49 -23 -22 -25 -22 -25 -4 0 11 7 29 15 41 9
12 15 26 14 30 -1 4 -1 15 0 23 2 25 21 -10 21 -41z m-203 9 c-3 -7 -5 -2 -5
12 0 14 2 19 5 13 2 -7 2 -19 0 -25z m2710 -44 c21 -13 50 -54 38 -54 -11 0
-145 70 -145 76 0 10 84 -7 107 -22z m-2398 -3 c7 -5 10 -14 7 -20 -11 -17
-23 -13 -29 9 -6 22 0 25 22 11z m245 -32 c-10 -12 -31 -30 -47 -41 -25 -18
-28 -18 -43 -4 -8 9 -22 16 -30 16 -21 0 -17 17 8 34 16 11 26 12 41 5 15 -9
25 -7 46 9 33 25 52 11 25 -19z m-1540 10 c38 -30 32 -39 -24 -39 -52 0 -58 7
-40 41 14 24 31 24 64 -2z m1256 5 c0 -13 -21 -44 -30 -44 -14 0 -12 24 2 38
13 13 28 16 28 6z m-3686 -81 c37 5 43 3 57 -21 12 -21 13 -34 6 -50 -6 -12
-14 -22 -18 -22 -5 0 -24 -14 -43 -31 -32 -28 -40 -30 -100 -27 -61 3 -65 5
-70 29 -3 16 -19 35 -41 49 -39 24 -43 42 -21 94 l14 34 88 -30 c65 -22 98
-29 128 -25z m1196 -13 c0 -33 -4 -41 -22 -45 -31 -7 -169 -35 -173 -35 -2 0
-1 9 2 20 4 14 -5 30 -31 54 -34 33 -35 35 -13 39 12 2 70 5 130 6 l107 1 0
-40z m313 25 c-1 -5 -35 -15 -75 -22 -40 -7 -84 -15 -96 -18 -37 -9 -16 14 32
36 43 20 143 23 139 4z m2682 -5 c3 -5 1 -10 -4 -10 -6 0 -11 -5 -11 -11 0 -8
12 -10 36 -6 26 4 37 2 41 -9 3 -8 3 -17 0 -20 -3 -4 -59 -21 -124 -40 -108
-31 -183 -43 -183 -28 0 3 12 20 26 37 18 21 54 42 108 64 89 35 102 38 111
23z m-2655 -84 c-22 -21 -410 -186 -440 -187 -14 0 -40 -6 -59 -13 -28 -10
-36 -19 -38 -43 -6 -47 19 -61 65 -38 118 58 396 185 404 185 17 0 -6 -26 -87
-97 -44 -39 -100 -88 -124 -110 l-45 -40 22 -30 c26 -37 27 -41 6 -64 -17 -19
-12 -39 10 -39 18 0 48 36 61 70 15 44 132 160 160 160 13 0 27 -4 30 -10 3
-5 -33 -64 -82 -131 l-87 -121 24 -20 c23 -19 25 -19 35 -3 5 10 32 49 58 87
40 57 51 67 63 58 7 -7 21 -10 29 -6 22 8 20 3 -32 -90 -29 -53 -52 -83 -60
-80 -7 3 -24 -9 -37 -27 -22 -28 -30 -32 -59 -29 -26 3 -55 -7 -116 -38 -151
-78 -197 -55 -268 135 -22 58 -62 90 -127 99 -71 11 -81 30 -81 151 0 100 1
105 28 133 27 28 125 72 161 72 9 0 16 -7 16 -15 0 -21 29 -19 137 9 92 24 92
24 99 3 6 -19 8 -18 34 10 23 25 46 33 151 57 68 15 129 29 134 31 20 5 29
-15 15 -29z m929 16 c3 -5 25 -15 48 -22 31 -9 43 -19 48 -38 3 -13 4 -27 0
-30 -3 -3 -41 6 -86 19 -73 22 -82 27 -95 58 l-14 34 46 -6 c26 -2 49 -9 53
-15z m1391 -56 c0 -8 3 -22 6 -31 6 -13 1 -16 -22 -13 -23 2 -28 7 -26 23 6
31 42 49 42 21z m1588 -53 c3 -28 0 -32 -27 -38 -42 -9 -144 36 -135 60 5 13
20 15 83 13 l76 -3 3 -32z m-1154 9 c4 -10 29 -41 57 -70 43 -44 49 -54 40
-71 -6 -11 -11 -35 -11 -55 0 -43 44 -90 101 -107 51 -16 64 -31 48 -57 -11
-18 -8 -25 21 -58 43 -49 66 -103 86 -200 l16 -77 -23 -18 c-13 -10 -43 -26
-67 -35 -42 -17 -50 -17 -209 2 -100 12 -126 -26 -143 -216 -21 -241 -45 -276
-167 -249 -43 10 -66 23 -99 56 -24 24 -49 43 -55 43 -6 0 -20 -12 -32 -26
-68 -82 -83 -86 -202 -57 l-70 17 38 16 c26 10 36 20 33 30 -3 8 -25 71 -49
140 -25 69 -48 140 -51 158 -7 31 -6 32 23 32 21 0 31 -5 31 -15 0 -19 9 -19
30 0 16 15 22 11 68 -47 79 -100 83 -102 126 -82 20 10 36 23 36 29 0 6 -25
35 -55 65 -30 30 -55 58 -55 62 0 25 44 0 100 -57 35 -36 71 -65 80 -65 9 0
31 13 49 28 l34 28 -62 53 c-60 52 -60 53 -43 76 15 20 19 21 38 9 11 -8 26
-32 33 -54 13 -42 31 -54 31 -19 0 16 4 19 20 14 23 -7 90 29 90 48 0 7 -34
32 -75 56 -41 25 -75 48 -75 52 0 12 60 59 83 64 12 3 42 -1 66 -10 57 -20 55
-21 75 22 16 34 16 38 2 49 -9 6 -16 24 -16 39 0 33 -25 65 -51 65 -10 0 -21
5 -25 11 -5 9 19 10 90 4 85 -6 96 -5 96 9 0 9 7 28 16 41 9 13 13 29 9 35 -3
6 3 10 14 10 33 0 24 16 -16 28 -43 13 -51 9 -32 -14 13 -16 10 -17 -35 -11
-27 4 -77 7 -112 7 -61 0 -64 1 -64 25 0 24 -31 51 -44 38 -3 -3 -6 -1 -6 5 0
8 19 12 51 12 43 0 54 -4 71 -25 11 -14 28 -25 38 -25 23 0 44 26 36 45 -4 11
2 15 27 15 53 0 63 12 48 60 -7 22 -19 44 -26 47 -13 4 -90 -5 -175 -23 -24
-4 -26 -2 -26 31 0 38 0 38 68 39 26 1 46 5 45 11 -1 5 16 15 38 21 55 17 63
17 69 -4z m-291 -71 c6 -23 0 -31 -24 -31 -16 0 -32 33 -21 44 12 13 40 5 45
-13z m-1025 -107 c45 -12 20 -24 -50 -24 -65 0 -70 1 -52 15 20 15 63 19 102
9z m2302 -21 c0 -5 3 -18 6 -31 5 -16 3 -21 -7 -17 -77 27 -75 25 -55 41 21
15 56 19 56 7z m-2297 -69 c50 -9 42 -27 -17 -37 -50 -8 -76 2 -76 29 0 15 31
18 93 8z m67 -99 c0 -12 -79 -55 -101 -55 -5 0 -9 13 -9 29 0 26 4 30 48 38
52 10 62 8 62 -12z m3280 -35 c0 -11 -7 -20 -15 -20 -17 0 -18 2 -9 24 9 23
24 20 24 -4z m-4518 -106 c-2 -60 -6 -117 -9 -128 -6 -20 25 -96 39 -96 6 0
12 9 15 20 3 12 14 20 25 20 19 0 20 4 13 70 -7 72 -3 80 29 55 29 -22 38 -18
34 13 -2 19 -12 31 -35 41 -30 13 -33 19 -33 58 0 48 0 49 38 29 57 -30 88
-77 112 -169 31 -117 36 -123 84 -103 33 14 36 17 26 37 -7 11 -20 45 -30 75
-15 41 -16 54 -6 54 19 0 42 -30 56 -73 15 -46 43 -60 118 -55 66 4 66 -3 7
-102 -25 -41 -45 -81 -45 -89 0 -8 -10 -25 -22 -38 -42 -45 -106 -24 -232 76
-107 84 -129 87 -170 22 -28 -44 -73 -61 -164 -61 -123 0 -228 67 -257 163
-28 92 7 151 63 106 28 -22 46 -14 56 24 10 43 66 157 77 157 5 0 22 -9 38
-21 l28 -21 -28 -91 c-16 -50 -29 -97 -29 -104 0 -15 57 -46 70 -38 6 3 10 12
10 19 0 8 7 46 16 86 15 64 19 71 30 56 7 -10 17 -15 23 -11 16 9 13 51 -5 69
-14 14 -13 18 13 41 15 13 32 23 38 21 6 -1 9 -45 7 -112z m906 12 c-3 -26
-12 -32 -102 -72 -55 -24 -101 -43 -102 -41 -1 1 -5 21 -9 44 -6 41 -6 43 27
57 18 8 50 18 70 21 21 3 50 17 65 30 26 22 29 23 41 7 7 -9 12 -30 10 -46z
m3505 47 c-7 -2 -21 -2 -30 0 -10 3 -4 5 12 5 17 0 24 -2 18 -5z m-3219 -21
c-12 -9 -45 -37 -73 -60 l-51 -44 0 31 c0 28 6 34 63 60 71 34 91 38 61 13z
m111 -22 c5 -8 -83 -136 -127 -185 -5 -6 -17 -1 -30 13 l-22 22 79 80 c81 82
89 87 100 70z m75 -54 c0 -2 -22 -42 -48 -88 -47 -82 -64 -96 -91 -79 -11 7 0
26 48 90 34 45 68 81 76 81 8 0 15 -2 15 -4z m54 -82 c9 -23 9 -22 -25 -40
-17 -8 -29 -12 -27 -7 31 67 41 76 52 47z m219 -154 c6 -5 67 -213 67 -230 0
-13 -83 -9 -110 5 l-30 16 0 119 0 119 33 -11 c17 -6 36 -14 40 -18z m-146
-97 c-2 -16 -4 -5 -4 22 0 28 2 40 4 28 2 -13 2 -35 0 -50z m249 -248 l13 -40
-20 24 c-10 13 -19 37 -18 55 1 32 2 29 25 -39z"/>
<path d="M6126 6135 c-7 -19 2 -116 13 -130 5 -5 11 -22 15 -37 3 -16 13 -28
21 -28 8 0 15 -6 15 -12 0 -8 -14 -13 -37 -13 -30 0 -39 -5 -53 -30 -14 -25
-22 -29 -48 -27 -34 3 -46 -9 -37 -39 5 -14 14 -19 29 -17 13 1 31 -5 40 -15
32 -31 66 -14 66 34 0 19 6 28 21 32 11 3 23 14 26 25 3 14 11 18 24 15 25 -7
52 16 46 39 -4 13 3 20 26 26 25 6 32 14 32 33 0 21 -11 28 -88 59 -88 35 -88
35 -85 68 4 33 -15 46 -26 17z"/>
<path d="M6006 5947 c-24 -18 -17 -51 13 -55 57 -8 95 23 65 53 -19 18 -54 19
-78 2z"/>
<path d="M6429 5930 c-19 -16 -21 -19 -7 -20 28 0 70 19 63 30 -10 15 -30 12
-56 -10z"/>
<path d="M6305 5900 c-4 -11 -4 -33 0 -49 7 -35 -15 -49 -33 -20 -14 22 -61
26 -80 7 -32 -32 6 -76 54 -64 18 5 24 2 24 -10 0 -9 9 -18 20 -21 13 -3 20
-14 20 -28 0 -38 11 -55 36 -55 31 0 50 34 35 66 -6 13 -17 24 -25 24 -22 0
-26 57 -5 76 25 23 32 49 19 74 -14 27 -57 27 -65 0z"/>
<path d="M6510 5635 c-7 -9 -11 -18 -8 -20 7 -8 68 16 68 26 0 15 -47 10 -60
-6z"/>
<path d="M6346 5578 c-20 -29 -20 -34 4 -58 16 -16 25 -18 40 -10 27 14 27 66
1 80 -26 14 -28 13 -45 -12z"/>
<path d="M6522 5478 c-26 -26 -8 -88 25 -88 7 0 20 11 29 25 15 23 15 27 0 50
-18 27 -35 32 -54 13z"/>
<path d="M6590 5480 c0 -13 40 -13 60 0 11 7 5 10 -22 10 -21 0 -38 -4 -38
-10z"/>
<path d="M6377 5374 c-12 -12 -8 -41 9 -54 22 -19 54 12 38 38 -12 19 -36 27
-47 16z"/>
<path d="M5623 5354 c-7 -3 -17 -21 -23 -40 -10 -29 -9 -41 10 -80 12 -25 35
-55 51 -66 31 -23 38 -55 15 -64 -21 -8 -27 -31 -16 -60 8 -20 16 -25 37 -22
18 2 29 10 31 23 3 11 13 28 23 38 26 24 24 52 -6 75 -14 11 -25 27 -25 37 0
28 -61 165 -73 164 -7 0 -17 -3 -24 -5z"/>
<path d="M6297 5283 c-11 -11 -8 -58 5 -71 34 -34 82 13 59 57 -11 20 -50 29
-64 14z"/>
<path d="M6210 5204 c-17 -20 -2 -67 23 -72 24 -5 47 16 47 42 0 42 -45 61
-70 30z"/>
<path d="M5555 5180 c-14 -6 -16 -9 -5 -10 26 -4 55 1 65 11 12 11 -33 11 -60
-1z"/>
<path d="M6390 5151 c0 -12 40 -51 52 -51 4 0 5 6 2 13 -7 17 -54 50 -54 38z"/>
<path d="M6214 5078 c3 -13 6 -30 6 -37 0 -11 3 -12 11 -4 14 14 4 63 -12 63
-7 0 -9 -9 -5 -22z"/>
<path d="M5767 5049 c-20 -11 -23 -59 -5 -77 18 -18 46 -14 58 8 22 40 -16 89
-53 69z"/>
<path d="M6538 5054 c-9 -8 12 -64 23 -64 5 0 9 6 9 13 -1 19 -25 58 -32 51z"/>
<path d="M6061 5016 c-6 -16 -10 -34 -8 -40 6 -17 29 33 24 52 -3 13 -7 10
-16 -12z"/>
<path d="M5559 5001 c-13 -11 -21 -22 -18 -26 4 -3 20 5 35 19 34 29 18 35
-17 7z"/>
<path d="M5857 5003 c-16 -26 -26 -63 -17 -63 12 0 32 48 27 64 -2 7 -5 7 -10
-1z"/>
<path d="M5666 4905 c-11 -16 -12 -25 -5 -25 12 0 38 29 39 43 0 16 -18 6 -34
-18z"/>
<path d="M6200 4898 c0 -21 5 -38 10 -38 13 0 13 40 0 60 -7 11 -10 5 -10 -22z"/>
<path d="M3500 6086 c0 -14 39 -67 40 -53 0 11 -29 67 -35 67 -3 0 -5 -6 -5
-14z"/>
<path d="M3888 6040 c-4 -42 2 -49 21 -26 12 15 5 66 -9 66 -4 0 -10 -18 -12
-40z"/>
<path d="M3332 6017 c-6 -7 -15 -25 -21 -40 -8 -21 -8 -27 4 -27 14 0 55 50
55 69 0 15 -25 14 -38 -2z"/>
<path d="M3141 6006 c-14 -17 -11 -92 4 -89 13 3 27 85 16 96 -4 4 -13 1 -20
-7z"/>
<path d="M3757 5994 c-25 -24 -28 -44 -7 -44 12 0 70 50 70 61 0 18 -38 8 -63
-17z"/>
<path d="M3552 5973 c-37 -43 -38 -47 -16 -65 8 -7 25 -23 36 -35 26 -27 73
-30 87 -6 11 21 -3 53 -23 53 -21 0 -47 45 -34 58 10 10 3 32 -11 32 -4 0 -21
-17 -39 -37z"/>
<path d="M3390 5989 c0 -19 37 -55 47 -45 4 3 -5 19 -20 34 -20 19 -27 22 -27
11z"/>
<path d="M5703 3792 c-19 -12 -45 -84 -33 -96 13 -13 46 17 54 50 8 29 -5 56
-21 46z"/>
<path d="M2660 3818 c0 -9 11 -23 25 -32 14 -9 25 -13 25 -8 0 5 -11 19 -25
32 -19 18 -25 20 -25 8z"/>
<path d="M2707 3743 c-12 -12 -7 -50 7 -63 23 -19 61 -8 64 18 2 13 -2 30 -8
38 -13 14 -51 19 -63 7z"/>
<path d="M2389 3630 c25 -22 41 -26 41 -10 0 11 -33 30 -52 30 -7 -1 -3 -9 11
-20z"/>
<path d="M2540 3630 c20 -13 73 -13 65 0 -3 6 -23 10 -43 10 -28 0 -33 -3 -22
-10z"/>
<path d="M2675 3629 c-12 -18 4 -55 28 -66 46 -21 77 25 41 61 -18 18 -60 21
-69 5z"/>
<path d="M2701 3496 c-18 -22 -2 -48 27 -44 31 4 38 20 17 42 -20 20 -29 20
-44 2z"/>
<path d="M2845 3367 c-26 -20 -13 -65 21 -73 14 -4 30 -2 36 4 15 15 5 53 -18
68 -17 12 -23 12 -39 1z"/>
<path d="M2631 3336 c-23 -28 28 -84 63 -70 19 7 21 55 4 72 -16 16 -53 15
-67 -2z"/>
<path d="M2616 3225 c-9 -14 -13 -25 -8 -25 5 0 19 11 32 25 18 19 20 25 8 25
-9 0 -23 -11 -32 -25z"/>
<path d="M2791 3177 c-27 -43 -21 -61 10 -30 13 12 19 30 17 44 -3 22 -4 22
-27 -14z"/>
<path d="M3462 3538 c-17 -17 -15 -36 6 -46 23 -13 42 -4 42 18 0 25 -33 43
-48 28z"/>
<path d="M1220 2850 c-8 -5 -12 -11 -9 -14 3 -3 14 1 25 9 21 16 8 20 -16 5z"/>
<path d="M894 2837 c3 -10 6 -23 6 -28 0 -5 5 -9 10 -9 14 0 12 13 -6 36 -14
17 -15 17 -10 1z"/>
<path d="M920 2785 c-17 -21 -1 -38 31 -33 16 2 24 10 24 23 0 25 -37 32 -55
10z"/>
<path d="M800 2748 c0 -18 27 -44 37 -34 4 4 -3 16 -15 29 -18 17 -22 18 -22
5z"/>
<path d="M1170 2741 c-6 -12 -7 -21 -1 -21 10 0 24 30 17 37 -2 3 -9 -5 -16
-16z"/>
<path d="M1015 2700 c-4 -7 -3 -16 3 -22 14 -14 45 -2 40 15 -6 16 -34 21 -43
7z"/>
<path d="M954 2686 c-3 -9 -3 -23 0 -32 7 -19 -10 -54 -28 -54 -20 0 -49 -37
-43 -55 7 -17 -6 -19 -33 -5 -13 7 -24 5 -40 -8 -26 -21 -18 -50 16 -58 l24
-6 -21 -17 c-19 -15 -20 -21 -10 -76 10 -51 9 -61 -6 -77 -20 -23 -7 -53 23
-53 11 0 21 -9 24 -20 3 -11 16 -21 29 -23 22 -4 23 -1 17 35 -3 21 -9 49 -12
63 l-7 25 24 -23 c19 -17 24 -33 24 -70 0 -41 3 -47 23 -50 12 -2 22 -8 22
-13 0 -15 40 -10 47 7 3 8 12 13 20 10 7 -3 22 3 33 14 11 11 26 17 34 14 8
-3 19 3 25 14 8 15 6 23 -8 36 -22 20 -40 21 -47 1 -4 -8 -12 -15 -20 -15 -7
0 -20 -10 -28 -21 -17 -24 -49 -19 -40 6 3 8 10 12 15 9 16 -9 40 17 34 37 -5
14 -1 16 15 12 11 -3 26 0 34 6 17 14 43 5 57 -21 20 -37 81 -4 66 36 -4 9
-17 16 -30 16 -31 0 -59 56 -36 71 10 6 15 3 19 -11 3 -11 17 -27 32 -34 34
-18 57 -3 61 39 2 17 7 38 12 48 11 26 -10 45 -33 31 -15 -10 -17 -7 -17 30 0
36 -3 41 -25 44 -14 2 -31 9 -38 14 -7 6 -15 8 -19 4 -4 -3 -12 7 -19 24 -13
31 -39 40 -47 18 -2 -7 -8 -10 -12 -6 -14 13 14 35 38 31 14 -3 29 2 37 12 11
13 11 18 -2 31 -12 13 -20 14 -37 5 -11 -7 -21 -15 -21 -20 0 -5 -11 -6 -24
-4 -15 3 -30 -2 -43 -17 l-20 -21 1 38 c1 28 -3 38 -17 41 -9 2 -20 -4 -23
-12z m66 -86 c0 -14 -49 -44 -58 -35 -4 4 -1 10 6 12 7 3 18 11 25 19 14 16
27 18 27 4z m74 -95 c-4 -8 -13 -15 -21 -15 -13 0 -13 3 -3 15 7 8 16 15 21
15 5 0 6 -7 3 -15z m71 -5 c3 -6 -1 -7 -9 -4 -18 7 -21 14 -7 14 6 0 13 -4 16
-10z m31 -47 c-7 -7 -26 7 -26 19 0 6 6 6 15 -2 9 -7 13 -15 11 -17z m-71 -2
c3 -5 -9 -20 -27 -32 l-31 -23 23 32 c26 36 27 36 35 23z"/>
<path d="M880 2656 c-7 -9 -10 -23 -6 -31 11 -29 60 -10 54 21 -4 24 -31 29
-48 10z"/>
<path d="M620 2638 c0 -18 18 -34 28 -24 3 4 -2 14 -11 23 -16 16 -17 16 -17
1z"/>
<path d="M1363 2643 c-21 -8 -15 -22 7 -16 11 3 20 9 20 14 0 10 -8 10 -27 2z"/>
<path d="M1150 2625 c-10 -12 -10 -18 0 -30 7 -8 18 -15 25 -15 7 0 18 7 25
15 10 12 10 18 0 30 -7 8 -18 15 -25 15 -7 0 -18 -7 -25 -15z"/>
<path d="M1235 2620 c-3 -5 1 -10 9 -10 8 0 18 5 21 10 3 6 -1 10 -9 10 -8 0
-18 -4 -21 -10z"/>
<path d="M773 2601 c-6 -22 -43 -35 -57 -21 -16 16 -45 11 -55 -9 -15 -28 13
-50 40 -33 26 17 42 6 27 -17 -16 -26 -3 -53 24 -49 17 2 23 10 23 28 1 40 14
67 35 73 12 3 20 14 20 26 0 28 -50 30 -57 2z"/>
<path d="M1300 2520 c0 -5 9 -10 20 -10 11 0 20 5 20 10 0 6 -9 10 -20 10 -11
0 -20 -4 -20 -10z"/>
<path d="M631 2475 c-28 -29 -32 -37 -21 -50 18 -22 36 -18 59 13 12 15 21 20
20 12 -3 -33 2 -41 31 -52 20 -6 29 -16 28 -27 -2 -10 4 -16 17 -16 17 0 20 7
20 45 0 40 -2 45 -23 45 -13 0 -38 15 -56 33 -18 17 -35 32 -37 32 -2 0 -19
-16 -38 -35z"/>
<path d="M550 2390 c-18 -4 -21 -8 -10 -12 17 -6 58 6 44 14 -5 3 -20 2 -34
-2z"/>
<path d="M684 2376 c-10 -26 1 -51 24 -54 17 -3 22 1 22 20 0 39 -35 64 -46
34z"/>
<path d="M1365 2380 c27 -12 35 -12 35 0 0 6 -12 10 -27 9 -25 0 -26 -1 -8 -9z"/>
<path d="M1340 2344 c-11 -12 -11 -18 2 -30 16 -17 44 -10 52 13 13 33 -30 47
-54 17z"/>
<path d="M751 2329 c-18 -7 -22 -14 -18 -31 4 -14 -2 -31 -18 -50 -20 -24 -23
-33 -14 -49 12 -24 47 -22 63 3 7 12 6 24 -4 42 -7 14 -11 27 -9 28 2 2 13 8
24 14 43 24 23 60 -24 43z"/>
<path d="M1277 2294 c-14 -15 -7 -44 11 -44 10 0 23 -5 29 -11 16 -16 53 -1
53 21 0 10 -3 21 -8 24 -15 9 -78 17 -85 10z"/>
<path d="M1444 2275 c11 -8 22 -12 25 -9 6 6 -19 24 -34 24 -5 -1 -1 -7 9 -15z"/>
<path d="M815 2210 c-8 -13 3 -30 20 -30 14 0 27 24 18 34 -10 9 -31 7 -38 -4z"/>
<path d="M1400 2185 c7 -8 17 -15 22 -15 6 0 5 7 -2 15 -7 8 -17 15 -22 15 -6
0 -5 -7 2 -15z"/>
<path d="M625 2170 c-10 -11 -13 -20 -8 -20 13 0 38 29 31 35 -3 3 -13 -4 -23
-15z"/>
<path d="M1274 2177 c3 -10 6 -23 6 -28 0 -5 5 -9 10 -9 14 0 12 13 -6 36 -14
17 -15 17 -10 1z"/>
<path d="M727 2157 c-11 -29 -9 -53 4 -40 6 6 9 21 7 34 -3 21 -4 22 -11 6z"/>
<path d="M860 2135 c-10 -12 -10 -18 0 -30 7 -8 16 -15 21 -15 16 0 38 31 33
45 -8 19 -38 19 -54 0z"/>
<path d="M1147 2123 c-8 -13 2 -43 14 -43 10 0 10 8 0 34 -5 12 -10 16 -14 9z"/>
<path d="M995 2099 c-6 -19 0 -38 9 -28 10 12 16 49 7 49 -5 0 -13 -9 -16 -21z"/>
<path d="M796 2054 c-10 -25 -1 -27 19 -4 15 17 16 20 3 20 -9 0 -19 -7 -22
-16z"/>
<path d="M1095 2027 c-4 -11 -3 -23 4 -30 15 -15 19 -7 11 23 -6 22 -8 23 -15
7z"/>
<path d="M8397 1998 c-4 -12 -4 -24 -1 -27 6 -7 24 20 24 37 0 21 -17 13 -23
-10z"/>
<path d="M8040 2003 c0 -4 5 -15 10 -23 8 -13 10 -13 10 2 0 9 -4 20 -10 23
-5 3 -10 3 -10 -2z"/>
<path d="M8167 1950 c-3 -11 -1 -23 4 -26 5 -3 9 6 9 20 0 31 -6 34 -13 6z"/>
<path d="M8310 1953 c0 -6 -3 -18 -6 -27 -3 -9 -2 -16 4 -16 15 0 21 25 11 41
-5 9 -9 9 -9 2z"/>
<path d="M7960 1945 c0 -15 18 -40 24 -34 3 3 -1 14 -9 25 -8 10 -14 15 -15 9z"/>
<path d="M8050 1905 c-10 -12 -8 -20 12 -44 25 -33 65 -41 75 -15 4 10 -6 26
-26 45 -37 33 -44 35 -61 14z"/>
<path d="M8444 1876 c-10 -8 -15 -18 -11 -22 4 -4 15 0 24 9 22 21 12 31 -13
13z"/>
<path d="M7994 1845 c-8 -19 3 -35 25 -35 26 0 44 23 29 38 -17 17 -47 15 -54
-3z"/>
<path d="M8642 1819 c-13 -5 -20 -13 -17 -19 7 -12 45 5 45 20 0 6 -1 10 -2 9
-2 0 -13 -4 -26 -10z"/>
<path d="M8178 1809 c-25 -14 -22 -44 4 -61 20 -13 21 -19 13 -43 -12 -34 -41
-49 -31 -17 9 26 -20 72 -44 72 -18 0 -50 -30 -50 -47 0 -6 -9 -13 -21 -16
-34 -9 -20 -43 16 -40 17 1 25 -1 19 -5 -6 -4 -19 -22 -30 -41 -15 -26 -16
-35 -6 -38 26 -10 62 -58 56 -76 -8 -24 14 -49 37 -42 11 4 19 2 19 -4 0 -16
-33 -18 -56 -4 -26 16 -54 7 -54 -17 0 -22 37 -37 52 -22 7 7 18 6 34 -4 14
-10 31 -13 46 -9 23 8 23 7 5 -13 -21 -23 -15 -62 8 -62 16 0 34 30 28 46 -4
13 28 24 69 24 16 0 33 9 42 22 l16 22 16 -22 c20 -28 60 -29 69 -1 4 13 1 27
-9 38 -20 22 -20 32 -1 25 19 -7 45 13 45 34 0 31 34 92 51 92 9 0 19 8 22 19
6 24 -10 52 -27 45 -9 -3 -11 3 -8 24 2 20 -1 31 -11 35 -22 8 -35 -12 -40
-58 -2 -21 -9 -41 -14 -42 -14 -5 -26 59 -12 67 5 4 17 20 25 36 14 27 14 30
-5 45 -11 9 -18 19 -15 21 2 3 -3 11 -12 18 -12 11 -20 11 -34 2 -11 -7 -21
-8 -25 -3 -3 5 -29 9 -58 8 -39 -2 -53 -6 -55 -18 -5 -26 26 -51 48 -39 10 5
26 7 34 4 9 -4 23 -1 32 6 10 9 18 10 26 2 16 -16 0 -33 -26 -26 -18 4 -28 -1
-40 -17 -9 -13 -16 -18 -16 -11 0 7 -13 12 -29 12 -32 0 -54 20 -46 42 4 9 -1
23 -10 32 -19 19 -24 19 -47 5z m-53 -168 c3 -5 1 -12 -5 -16 -5 -3 -10 1 -10
9 0 18 6 21 15 7z m120 -11 c-3 -5 -14 -10 -24 -10 -9 0 -22 -5 -28 -11 -8 -8
-13 -8 -18 0 -6 11 1 16 40 24 34 8 36 7 30 -3z m-115 -53 c0 -5 -4 -5 -10 -2
-5 3 -10 14 -10 23 0 15 2 15 10 2 5 -8 10 -19 10 -23z m70 -26 c0 -5 -7 -11
-15 -15 -15 -5 -20 5 -8 17 9 10 23 9 23 -2z m63 -116 c-2 -5 -16 -8 -33 -8
-44 2 -46 2 -31 12 17 11 67 7 64 -4z"/>
<path d="M7970 1805 c0 -2 10 -10 23 -16 20 -11 21 -11 8 4 -13 16 -31 23 -31
12z"/>
<path d="M8514 1795 c-8 -19 3 -35 25 -35 23 0 41 19 34 36 -7 18 -52 18 -59
-1z"/>
<path d="M8660 1705 c-7 -9 -10 -18 -7 -22 8 -7 37 15 37 28 0 14 -16 11 -30
-6z"/>
<path d="M8532 1693 c2 -10 10 -18 18 -18 8 0 16 8 18 18 2 12 -3 17 -18 17
-15 0 -20 -5 -18 -17z"/>
<path d="M7950 1660 c0 -6 7 -13 15 -17 24 -9 27 1 5 15 -13 8 -20 8 -20 2z"/>
<path d="M8601 1656 c-6 -7 -10 -24 -9 -37 3 -20 -2 -25 -32 -29 -44 -6 -54
-36 -16 -46 27 -6 60 11 51 26 -3 5 10 14 29 20 42 14 57 47 30 67 -23 17 -39
17 -53 -1z"/>
<path d="M8730 1630 c-20 -12 -9 -21 18 -13 12 3 19 9 16 14 -7 11 -15 11 -34
-1z"/>
<path d="M7853 1573 c9 -2 23 -2 30 0 6 3 -1 5 -18 5 -16 0 -22 -2 -12 -5z"/>
<path d="M7965 1530 c3 -5 15 -10 26 -10 11 0 17 5 14 10 -3 6 -15 10 -26 10
-11 0 -17 -4 -14 -10z"/>
<path d="M8510 1524 c-7 -8 -9 -14 -5 -14 4 0 -3 -8 -16 -19 -20 -16 -21 -21
-10 -35 7 -9 20 -16 27 -16 8 0 14 -9 14 -20 0 -11 4 -20 9 -20 4 0 6 -11 4
-24 -5 -26 23 -44 41 -26 5 5 20 10 33 10 30 0 42 29 19 46 -19 13 -45 8 -59
-10 -4 -6 -5 1 -1 16 4 20 0 35 -16 55 -12 16 -17 29 -11 31 16 5 13 29 -3 35
-8 3 -20 -1 -26 -9z"/>
<path d="M8033 1523 c-31 -12 0 -59 31 -47 10 4 16 15 14 28 -3 21 -22 29 -45
19z"/>
<path d="M8565 1511 c-8 -26 5 -53 24 -49 10 2 17 15 19 36 3 26 0 32 -17 32
-11 0 -22 -8 -26 -19z"/>
<path d="M8467 1419 c-9 -6 -17 -19 -17 -29 0 -11 -7 -20 -15 -20 -8 0 -15 -5
-15 -10 0 -6 -10 -8 -23 -5 -15 4 -28 0 -37 -10 -12 -15 -12 -19 5 -31 16 -12
22 -12 39 0 24 15 60 6 69 -18 8 -19 40 -21 55 -3 16 18 -1 40 -32 40 -31 0
-34 12 -6 27 23 12 26 42 7 58 -8 7 -18 7 -30 1z"/>
<path d="M8690 1395 c27 -14 36 -13 25 4 -3 6 -16 11 -28 11 -21 -1 -21 -1 3
-15z"/>
<path d="M7975 1389 c-11 -17 -2 -18 19 -3 17 12 17 14 4 14 -9 0 -20 -5 -23
-11z"/>
<path d="M8116 1371 c-8 -12 21 -34 34 -26 17 11 11 35 -9 35 -11 0 -22 -4
-25 -9z"/>
<path d="M8257 1363 c-12 -11 -8 -41 6 -46 17 -6 47 11 47 27 0 20 -39 34 -53
19z"/>
<path d="M7875 1320 c-3 -5 3 -10 14 -10 12 0 21 5 21 10 0 6 -6 10 -14 10 -8
0 -18 -4 -21 -10z"/>
<path d="M8144 1255 c-9 -22 9 -37 37 -33 16 2 24 10 24 23 0 26 -52 35 -61
10z"/>
<path d="M8511 1221 c-1 -27 2 -32 11 -23 8 8 8 17 0 34 -10 22 -11 21 -11
-11z"/>
<path d="M8298 1214 c3 -15 8 -22 14 -16 9 9 1 42 -12 42 -4 0 -5 -12 -2 -26z"/>
<path d="M8182 1185 c0 -16 2 -22 5 -12 2 9 2 23 0 30 -3 6 -5 -1 -5 -18z"/>
<path d="M2131 1451 c-21 -14 -3 -31 32 -31 38 0 62 13 53 29 -8 13 -65 14
-85 2z"/>
<path d="M2223 1338 c-40 -13 -43 -35 -7 -44 26 -7 76 20 78 41 1 14 -33 15
-71 3z"/>
<path d="M2432 1105 c-19 -8 -32 -20 -30 -27 7 -22 52 -20 81 2 47 37 13 53
-51 25z"/>
<path d="M5538 1153 c-33 -8 -18 -23 22 -23 40 0 53 13 24 24 -17 6 -19 6 -46
-1z"/>
<path d="M5540 1002 c0 -5 16 -16 35 -25 36 -17 49 -5 23 21 -13 13 -58 16
-58 4z"/>
<path d="M2771 889 c-13 -39 -14 -79 -2 -79 23 0 42 34 39 68 -4 46 -23 52
-37 11z"/>
<path d="M6175 7146 c-63 -29 -96 -63 -75 -76 24 -15 61 -11 119 13 66 27 85
52 57 73 -27 19 -43 18 -101 -10z"/>
</g>
</svg>
